<?xml version="1.0" standalone="no"?>
<!DOCTYPE svg PUBLIC "-//W3C//DTD SVG 1.1//EN" "http://www.w3.org/Graphics/SVG/1.1/DTD/svg11.dtd" >
<svg xmlns="http://www.w3.org/2000/svg" xmlns:xlink="http://www.w3.org/1999/xlink" version="1.1">
<metadata>
Created by FontForge 20170731 at Wed Jul 20 16:23:45 2016
 By Aleksey,,,
Copyright (c) 2016 by Mariya Pigoulevskaya. All rights reserved.
</metadata>
<defs>
<font id="Calder-Dark" horiz-adv-x="0" >
  <font-face 
    font-family="Calder Dark"
    font-weight="400"
    font-stretch="normal"
    units-per-em="1000"
    panose-1="0 0 5 0 0 0 0 0 0 0"
    ascent="780"
    descent="-220"
    cap-height="704"
    bbox="-478 -284 1281 1036"
    underline-thickness="50"
    underline-position="-150"
    unicode-range="U+0020-263C"
  />
<missing-glyph horiz-adv-x="525" 
d="M98 -250v1010l20 20h293l20 -20v-1010l-20 -20h-293zM331 -198l19 17l-21 18h-65l-3 12l37 25l35 12l17 17l-19 18h-137l-19 -18l19 -17h37v-12l-37 -25l-19 -30l19 -17h137zM331 -55l19 20v79l-19 20h-137l-19 -20v-79l19 -20h137zM210 5l21 24h63l21 -24l-21 -25h-63z
M331 127l19 20v79l-21 20h-63l-21 -20v-19l18 -20l35 24l17 -24l-21 -25h-63l-21 21v42l-17 21l-18 -20v-79l19 -20h137zM331 269l19 21v63l-17 21l-18 -17v-35l-20 -18h-100l-20 -17l19 -18h137zM259 329l21 18v37l18 18h35l17 18l-19 17h-137l-19 -17l18 -18h35l17 -19
l-17 -20h-35l-18 -17l21 -17h63zM210 520l18 19l17 -19l-17 -19zM331 465l19 18l-17 18h-35l-18 18v37l-21 18h-63l-21 -22v-65l19 -22h137zM331 602l19 17l-17 17h-35l-18 20l18 19h35l17 18l-19 17h-136l-19 -17l23 -18h23l23 -19l-17 -20h-35l-18 -17l19 -17h137z" />
    <glyph glyph-name=".notdef" horiz-adv-x="525" 
d="M98 -250v1010l20 20h293l20 -20v-1010l-20 -20h-293zM331 -198l19 17l-21 18h-65l-3 12l37 25l35 12l17 17l-19 18h-137l-19 -18l19 -17h37v-12l-37 -25l-19 -30l19 -17h137zM331 -55l19 20v79l-19 20h-137l-19 -20v-79l19 -20h137zM210 5l21 24h63l21 -24l-21 -25h-63z
M331 127l19 20v79l-21 20h-63l-21 -20v-19l18 -20l35 24l17 -24l-21 -25h-63l-21 21v42l-17 21l-18 -20v-79l19 -20h137zM331 269l19 21v63l-17 21l-18 -17v-35l-20 -18h-100l-20 -17l19 -18h137zM259 329l21 18v37l18 18h35l17 18l-19 17h-137l-19 -17l18 -18h35l17 -19
l-17 -20h-35l-18 -17l21 -17h63zM210 520l18 19l17 -19l-17 -19zM331 465l19 18l-17 18h-35l-18 18v37l-21 18h-63l-21 -22v-65l19 -22h137zM331 602l19 17l-17 17h-35l-18 20l18 19h35l17 18l-19 17h-136l-19 -17l23 -18h23l23 -19l-17 -20h-35l-18 -17l19 -17h137z" />
    <glyph glyph-name=".null" 
 />
    <glyph glyph-name="nonmarkingreturn" horiz-adv-x="333" 
 />
    <glyph glyph-name="space" unicode=" " horiz-adv-x="300" 
 />
    <glyph glyph-name="exclam" unicode="!" horiz-adv-x="302" 
d="M122 158l-17 5l-11 13l-3 8l-3 15l1 23l-2 22v46l-2 18l2 16l1 17l-3 12l1 10l1 26v28l-1 14v10l1 15l1 16l-1 16l1 16l-1 24l1 16l1 21v14l-2 20v15l-3 25l2 24l6 14l9 13l8 7l16 4l25 2l22 -1l10 -4l8 -7l10 -19l4 -27l-1 -30l-1 -33l2 -27l-1 -14l-2 -7l1 -25l1 -23
l1 -29l1 -28l1 -14l-2 -24l1 -26v-25l2 -24l1 -25l1 -30v-20l-1 -9l1 -9v-8l1 -22l-10 -26l-9 -9l-5 -2l-9 -1l-15 -2h-21zM124 -17l-5 2l-14 9l-15 15l-6 14l-4 22l2 20l2 8l1 5l4 7l9 11l9 8l10 6l18 6l30 3l23 -7l19 -20l10 -19l4 -15l1 -18l-6 -19l-10 -16l-13 -13
l-21 -8l-14 -3h-7l-14 -1z" />
    <glyph glyph-name="quotedbl" unicode="&#x22;" horiz-adv-x="453" 
d="M114 438l-18 7l-7 11l-4 12l-1 11l1 13l-1 28l-1 26l-2 24l1 34v26l-1 9l-1 5l1 5v20l2 11l1 5l3 12l10 13l17 7l19 3l19 -1l16 -2l20 -10l8 -17l3 -25l2 -37v-19l1 -20l-2 -32l2 -22l-1 -17l1 -27l-2 -15l-2 -14l-10 -13l-25 -11l-31 -1zM284 438l-18 7l-7 11l-4 12
l-1 11l1 13l-1 28l-1 26l-2 24l1 34v26l-1 9l-1 5l1 5v20l2 11l1 5l3 12l10 13l17 7l19 3l19 -1l16 -2l20 -10l8 -17l3 -25l2 -37v-19l1 -20l-2 -32l2 -22l-1 -17l1 -27l-2 -15l-2 -14l-10 -13l-25 -11l-31 -1z" />
    <glyph glyph-name="numbersign" unicode="#" horiz-adv-x="778" 
d="M206 3l-17 3l-18 7l-12 11l-9 20l5 29l4 18l5 9l4 23l5 26l7 23l2 21l-3 11l-7 5l-13 2l-20 -2l-19 2l-15 4l-16 9l-7 16l-2 9l1 11l2 31l13 22l10 4l19 4l18 1l51 2l14 3l14 20l7 17l-2 7l-10 4l-14 1l-11 2l-17 -1h-20l-14 6l-10 9l-5 9l-3 12l-1 10l-1 17l3 18l2 10
l7 8l15 7l42 4l28 1l21 1l14 5l9 14l7 18l4 12l4 10l4 16l6 25l8 23l2 14l2 15l7 21l6 20l8 7l6 8l10 4l19 -1l35 -8l15 -7l9 -16v-16l-3 -18l-10 -33l-7 -36l-4 -17l-4 -23l-4 -20l2 -7l16 -8l24 -2h30l7 6l3 6l4 6l6 19l5 21l3 14l3 10v10l2 14l3 14l4 15l3 13l4 12l5 14
l8 19l11 13l27 8l38 -6l16 -6l12 -10l7 -17l-1 -16l-4 -20l-6 -24l-10 -37l-10 -39l-3 -20l3 -9l8 -4h9l9 -1l6 -1l20 2l22 -3l13 -7l12 -22l4 -27l-4 -27l-8 -16l-7 -4l-13 -6l-30 -5h-41l-14 -2l-18 -3l-5 -7l-4 -12l-3 -14l2 -12l11 -4h54l9 -2l15 -9l10 -12l4 -25
l-1 -25l-7 -22l-9 -7l-12 -7l-22 -5l-17 -2h-60l-5 -2l-8 -7l-6 -16l-2 -14l-3 -11l-3 -16l-2 -17l-5 -22l-8 -25l-5 -18l-5 -14l-2 -11l-5 -11l-5 -10l-7 -5l-24 -8l-32 1l-21 9l-11 10l-10 15l-1 26l5 20l6 21l8 31l6 22l3 10l3 17l3 12l-2 10l-12 5h-18l-18 2l-15 -2
l-11 -3l-6 -10l-3 -11l-3 -9l-2 -5l-2 -10l-3 -17l-3 -15l-3 -14l-5 -25l-7 -23l-3 -12l-2 -11l-2 -12l-7 -14l-6 -8l-9 -6l-15 -5h-15zM401 322l25 9l7 16l3 13v8l-2 6l-23 3h-20l-25 -1l-7 -4l-6 -19l-4 -19l4 -9l28 -3h20z" />
    <glyph glyph-name="dollar" unicode="$" horiz-adv-x="764" 
d="M345 -110l-18 11l-3 6l-5 22l-3 27l-1 14l-8 10l-18 9l-23 6l-31 10l-36 16l-14 9l-10 6l-12 11l-19 13l-20 15l-7 10l-7 8l-10 10l-9 13l-10 26l6 32l16 17l26 12l23 3l10 -2l12 -7l8 -10l15 -15l19 -17l12 -10l11 -7l8 -9l15 -9l21 -11l18 -4h10l6 6l1 12l2 10v45
l-1 24l-1 17v16l1 15l-1 12l-2 16l-5 13l-5 6l-8 4l-37 13l-13 5l-12 3l-11 5l-10 6l-15 6l-23 11l-17 13l-11 7l-14 12l-8 13l-11 13l-8 14l-6 11l-4 18l-2 17l-4 11l-2 17v20l2 18l5 17l7 14l7 17l8 12l4 8l15 18l14 15l8 8l15 13l18 13l10 7l9 4l15 6l14 6l22 7l44 13
l12 6l6 22v32l1 16l3 4l7 7l12 8l17 1h22l20 -2l14 -3l12 -10l6 -13l2 -21l-1 -22l2 -17l13 -12l35 -9l12 -6l10 -2l14 -7l13 -5l21 -12l25 -17l14 -13l15 -11l12 -13l18 -21l11 -18l3 -10l2 -14l-3 -11l-4 -9l-8 -10l-14 -11l-25 -8l-20 1l-8 4l-13 7l-31 31l-7 6l-13 11
l-15 10l-16 7l-21 7l-12 3l-6 -2l-4 -8l-2 -12l1 -14l-2 -12l4 -8l-2 -5l-2 -10l1 -13l1 -14l1 -10l-2 -6v-21l1 -22v-13l5 -9l13 -9l14 -8l10 -1l23 -7l11 -3l19 -4l34 -11l28 -11l26 -17l22 -22l14 -19l8 -14l8 -25l7 -30l3 -17l-2 -17l-1 -19l-2 -12l-3 -20l-9 -26
l-12 -18l-13 -19l-15 -19l-23 -21l-13 -8l-14 -10l-34 -15l-17 -7l-22 -6l-27 -8l-36 -10l-3 -4l-2 -26v-11l-4 -22l-14 -19l-11 -6l-5 -1l-20 -3zM481 107l18 8l21 11l15 12l14 13l6 12l4 15l2 20l-1 15l-4 15l-8 14l-17 12l-20 11l-19 5l-23 5l-11 3h-10l-8 -9l-2 -12v-11
l-1 -21v-110l2 -12l3 -4l12 -1zM305 423l6 2l4 4l2 13l2 21l1 12v18l1 22l-3 10l-1 14l1 19l-1 16l-3 11l-3 3l-5 1l-15 -4l-18 -7l-15 -9l-15 -11l-13 -17l-8 -12l-4 -10l-5 -18l2 -22l11 -19l13 -13l10 -7l18 -8l21 -7l11 -2h6z" />
    <glyph glyph-name="percent" unicode="%" horiz-adv-x="970" 
d="M312 -12l-18 5l-19 5l-14 6l-8 9l-6 11l-3 8l2 10l4 12l4 10l3 10l7 12l5 9l7 16l14 23l7 12l11 23l17 32l14 26l10 18l8 8l4 9l5 9l9 22l13 18l9 14l8 18l10 11l5 9l9 16l11 26l9 14l8 11l9 16l1 9l7 17l12 24l14 27l16 27l10 16l8 14l13 26l12 21l6 12l9 15l8 10l7 14
l7 12l5 7l10 10l15 6h15l13 -3l14 -8l18 -6l11 -10l8 -15l-1 -18v-5l-3 -13l-14 -25l-15 -28l-15 -33l-12 -21l-7 -16l-17 -29l-12 -20l-10 -18l-9 -18l-10 -19l-14 -27l-11 -19l-12 -23l-11 -20l-8 -16l-9 -14l-5 -8l-8 -15l-10 -15l-7 -8l-8 -15l-11 -18l-10 -17l-10 -18
l-16 -30l-10 -23l-5 -8l-8 -19l-18 -29l-11 -20l-7 -12l-6 -14l-8 -12l-10 -14l-9 -7l-7 -2h-6zM215 382l-16 5l-18 6l-12 6l-10 4l-11 7l-12 10l-7 8l-5 8l-9 11l-13 22l-8 19l-5 15l-4 13l-1 8l-1 13l-3 14l2 19l2 17l5 15l8 20l6 12l13 19l12 13l18 16l12 10l17 10l20 8
l25 6l20 2h12l18 -1l27 -2l22 -6l23 -10l23 -17l12 -9l8 -9l10 -10l8 -15l10 -22l4 -12l7 -25l3 -27l-1 -12l-3 -17l-6 -21l-6 -18l-4 -10l-3 -4l-9 -16l-17 -21l-12 -15l-9 -6l-8 -5l-26 -14l-17 -7l-20 -6l-15 -1l-16 -3zM267 497l16 8l10 9l7 15l7 21l-3 19l-7 14l-20 16
l-27 5l-28 -10l-13 -17l-5 -13l-3 -18l3 -16l9 -21l16 -11l10 -3l11 -2zM678 -15l-16 5l-18 6l-12 6l-10 4l-11 7l-12 10l-7 8l-5 8l-9 11l-13 22l-8 19l-5 15l-4 13l-1 8l-1 13l-3 14l2 19l2 17l5 15l8 20l6 12l13 19l12 13l18 16l12 10l17 10l20 8l25 6l20 2h12l18 -1
l27 -2l22 -6l23 -10l23 -17l12 -9l8 -9l10 -10l8 -15l10 -22l4 -12l7 -25l3 -27l-1 -12l-3 -17l-6 -21l-6 -18l-4 -10l-3 -4l-9 -16l-17 -21l-12 -15l-9 -6l-8 -5l-26 -14l-17 -7l-20 -6l-15 -1l-16 -3zM730 100l16 8l10 9l7 15l6 21l-2 19l-7 14l-20 16l-27 5l-28 -10
l-13 -17l-5 -13l-3 -18l3 -16l9 -21l16 -11l10 -3l11 -2z" />
    <glyph glyph-name="ampersand" unicode="&#x26;" horiz-adv-x="795" 
d="M283 -17l-18 3l-28 6l-41 18l-19 14l-16 9l-24 23l-5 7l-8 9l-17 23l-8 14l-5 9l-7 18l-6 23l-1 17l1 12l2 25l5 18l2 11l7 19l10 22l12 22l11 16l14 15l15 14l9 7l6 6l10 9l6 9l1 8l-1 8l-3 6l-6 10l-7 13l-11 18l-7 18l-2 6l-6 20l-5 24l1 21l3 29l3 18l3 12l9 27
l12 20l13 17l17 16l35 24l24 12l18 6l17 4l12 1l12 2h39l26 -5l26 -9l17 -7l10 -6l16 -9l19 -17l11 -13l10 -15l11 -18l5 -10l7 -21l4 -14l2 -15v-10l-2 -13l-2 -23l-8 -21l-11 -19l-17 -23l-18 -20l-15 -15l-13 -10l-15 -11l-13 -10l-12 -10l-14 -10l-5 -8v-8l9 -13l27 -25
l30 -30l18 -15l12 -12l9 -7l6 -1l3 3l5 8l4 15l4 12l3 13v12l-5 5l-12 5l-11 8l-7 9l-3 13l-1 29l1 24l5 8l8 8l7 3l13 3l73 2l15 -2l19 1l64 -2l25 -8l7 -7l4 -7l1 -11l1 -9v-7l-1 -17l-3 -21l-16 -18l-30 -7l-19 -8l-5 -11l-4 -14l-6 -13l-3 -12l-9 -26l-16 -38l-11 -24
l-3 -15l6 -10l12 -11l13 -9l17 -9l16 -9l17 -5l26 -12l11 -14l6 -12l3 -14l-2 -15l-8 -20l-11 -14l-10 -8l-25 -7l-21 1l-15 4l-21 7l-18 9l-20 12l-18 11l-9 5l-10 9l-14 8l-8 1l-7 -3l-6 -3l-14 -12l-52 -29l-47 -14l-19 -5l-16 -2l-18 -1h-20zM331 99l17 3l7 1l13 3l16 7
l14 8l10 7l6 6l1 9l-10 12l-21 22l-15 14l-20 25l-11 10l-6 8l-13 11l-17 17l-26 23l-5 2l-16 -7l-15 -14l-12 -13l-17 -23l-7 -21l-2 -13l1 -18l7 -28l19 -25l23 -16l28 -8l27 -2h24zM325 471l31 23l26 22l13 19l5 12l-1 20l-10 18l-13 9l-13 6l-14 3l-19 2l-14 -3l-13 -4
l-16 -11l-13 -11l-7 -15l-4 -17l1 -25l7 -23l11 -21l15 -14z" />
    <glyph glyph-name="quotesingle" unicode="'" horiz-adv-x="283" 
d="M114 438l-18 7l-7 11l-4 12l-1 11l1 13l-1 28l-1 26l-2 24l1 34v26l-1 9l-1 5l1 5v20l2 11l1 5l3 12l10 13l17 7l19 3l19 -1l16 -2l20 -10l8 -17l3 -25l2 -37v-19l1 -20l-2 -32l2 -22l-1 -17l1 -27l-2 -15l-2 -14l-10 -13l-25 -11l-31 -1z" />
    <glyph glyph-name="parenleft" unicode="(" horiz-adv-x="488" 
d="M326 -121l-19 10l-16 10l-12 9l-9 11l-9 10l-6 7l-11 12l-11 9l-17 20l-16 18l-6 10l-10 12l-9 12l-6 10l-10 14l-7 9l-6 15l-8 15l-6 12l-7 16l-8 18l-7 17l-4 11l-3 16l-4 18v6l-5 19l-6 31l-2 23l-3 12v18l-2 24l-1 21l1 20l1 18l2 19l1 17l2 20l6 23l2 9l2 8l3 15
l6 17l6 12l3 7l7 19l7 15l9 24l8 13l9 14l10 16l9 10l5 12l6 11l7 7l10 14l12 14l12 16l19 20l14 12l12 13l11 10l9 10l11 10l11 9l14 8l12 4l17 -1l17 -8l12 -10l14 -16l7 -14l2 -14l-1 -12l-7 -17l-13 -15l-8 -8l-9 -7l-18 -15l-21 -19l-12 -12l-12 -15l-17 -22l-11 -15
l-13 -17l-13 -20l-8 -17l-10 -17l-4 -13l-8 -17l-6 -18l-7 -19l-4 -23l-3 -15l-2 -15l-2 -11v-14l-2 -13v-42l1 -25l1 -17l4 -17l4 -22l7 -27l7 -22l5 -13l7 -18l5 -13l6 -11l7 -15l5 -12l13 -18l15 -20l11 -13l9 -13l14 -15l17 -18l16 -15l22 -21l20 -24l8 -15v-12l-4 -13
l-2 -9l-9 -14l-12 -13l-13 -7l-15 -2z" />
    <glyph glyph-name="parenright" unicode=")" horiz-adv-x="488" 
d="M127 -123l-13 7l-12 13l-9 14l-2 10l-4 12v12l8 15l20 24l22 21l16 15l17 18l14 15l9 13l11 13l15 20l13 18l5 12l7 15l6 11l5 13l8 18l5 13l6 22l7 27l4 22l4 17l1 17l1 25v42l-2 13v14l-2 11l-1 15l-4 15l-4 23l-6 19l-7 18l-7 17l-5 13l-10 17l-8 17l-13 20l-13 17
l-11 15l-17 22l-12 15l-12 12l-21 19l-18 15l-9 7l-7 8l-14 15l-7 17v12l2 14l6 14l15 16l11 10l17 8l18 1l11 -4l15 -9l10 -8l11 -10l9 -10l11 -10l12 -13l14 -13l19 -19l12 -16l12 -14l10 -14l7 -7l6 -11l5 -12l9 -10l10 -16l9 -14l8 -13l9 -24l7 -15l8 -19l3 -7l5 -12
l6 -17l3 -15l2 -8l3 -9l5 -23l2 -20l1 -17l2 -18l1 -18l1 -21l-1 -21l-2 -24v-18l-3 -12l-2 -23l-6 -31l-5 -19v-6l-4 -18l-4 -17l-3 -10l-8 -18l-7 -17l-8 -17l-5 -11l-8 -15l-6 -15l-7 -9l-9 -14l-6 -10l-20 -24l-6 -10l-16 -18l-17 -20l-11 -9l-11 -12l-6 -7l-9 -10
l-9 -11l-12 -9l-16 -10l-19 -10l-20 -4z" />
    <glyph glyph-name="asterisk" unicode="*" horiz-adv-x="504" 
d="M229 407l-14 4l-8 7l-8 14l-5 27l-2 17l-4 5l-7 -3l-14 -10l-17 -10h-12l-22 12l-18 18l-9 17l-5 21l3 13l12 16l27 21l13 17l-1 5l-6 6l-31 22l-12 10l-8 9l-1 13l2 13l4 14l9 13l12 14l10 12l8 5l12 3h12l10 -4l16 -9l11 -4l5 3l6 34l3 10l9 10l9 5l12 3h27l28 -3
l18 -11l9 -23l1 -21l2 -10l10 3l14 8l20 7l15 -3l17 -12l16 -16l9 -15l6 -14l2 -9l-1 -9l-10 -15l-12 -10l-14 -10l-18 -14l-5 -9l3 -5l3 -8l6 -5l18 -12l18 -16l6 -9l4 -8l-3 -15l-6 -15l-8 -16l-9 -12l-11 -13l-15 -5l-18 1l-17 7l-12 7l-7 4l-3 -2l-1 -11l-3 -22l-7 -18
l-14 -10l-33 -6z" />
    <glyph glyph-name="plus" unicode="+" horiz-adv-x="615" 
d="M285 109l-6 1l-12 4l-12 12l-5 10l-1 19v27l2 18v23l-2 22l-1 12l-5 10l-8 7l-15 3l-15 1l-48 2h-27l-26 5l-10 7l-8 15l-6 29l3 24l5 13l8 13l11 5l13 4h26l20 -2h18l15 -2l21 1l21 5l6 13l1 31l-1 30l1 17l1 19l2 16l6 17l9 13l9 5l24 3l28 1l13 -2l9 -3l12 -13l4 -17
l1 -14l2 -17v-19l1 -22v-35l2 -12l3 -5l8 -4l22 -5l38 -3l26 -1h20l22 -5l13 -6l6 -9l4 -13v-12l2 -23l-2 -20l-7 -13l-13 -8l-8 -2l-10 -2l-9 1l-13 1l-72 1l-26 -3l-7 -6l-2 -6v-16l-1 -10v-45l1 -15l-1 -15l-1 -20l-3 -11l-9 -13l-25 -12h-28z" />
    <glyph glyph-name="comma" unicode="," horiz-adv-x="294" 
d="M68 -199l-14 5l-13 6l-11 8l-4 6l-4 8l-2 12l6 23l6 17l13 30l9 17l9 24l12 25l8 20l12 22l13 28l10 21l8 8l11 8l13 1l12 -2l10 -5l21 -10l15 -12l5 -9l1 -13l-5 -17l-11 -25l-7 -15l-8 -20l-4 -11l-8 -18l-4 -14l-8 -15l-10 -24l-6 -15l-4 -5l-11 -24l-20 -30l-17 -8
l-11 -1z" />
    <glyph glyph-name="hyphen" unicode="-" horiz-adv-x="450" 
d="M319 281l-25 1l-18 1l-18 -1h-23l-31 3l-29 -2h-14l-11 1l-15 -1l-14 2l-15 3l-11 7l-8 12l-5 15l-1 10v13l3 17l6 17l8 7l7 2l12 2l13 2l17 -1l16 1l9 -1h6l8 -1l14 1h14l11 1h29l14 -1l24 1h18l10 -1h12l13 -4l14 -12l9 -23l2 -29l-5 -23l-6 -12l-14 -5l-14 -4z" />
    <glyph glyph-name="period" unicode="." horiz-adv-x="305" 
d="M117 -13l-14 12l-10 10l-8 18l-4 15v20l8 24l12 13l12 9l16 8l19 6l25 -3l22 -11l17 -21l11 -24l2 -10v-11l-3 -16l-8 -16l-15 -14l-25 -13l-30 -3z" />
    <glyph glyph-name="slash" unicode="/" horiz-adv-x="536" 
d="M137 2l-26 9l-18 13l-7 8l-4 13l-2 9l1 9l9 22l14 27l7 18l4 9l6 12l12 25l9 23l4 9l5 13l6 15l9 20l6 15l6 12l4 12l6 11l9 21l7 18l5 11l5 16l6 14l8 16l4 12l6 15l9 19l3 13l7 14l4 13l6 12l11 24l8 16l3 10l11 28l13 31l11 25l12 27l6 13l7 13l12 11l11 5l19 1l14 -4
l11 -5l6 -4l10 -5l13 -8l7 -10l3 -10l-1 -18l-4 -18l-9 -19l-11 -23l-10 -25l-7 -17l-1 -2l-5 -9l-5 -16l-12 -28l-5 -16l-13 -24l-9 -20l-5 -10l-5 -12l-3 -9l-3 -10l-6 -11l-5 -14l-7 -16l-17 -37l-7 -18l-5 -11l-3 -5l-5 -14l-8 -19l-14 -31l-13 -34l-12 -27l-7 -16
l-9 -22l-11 -26l-14 -31l-6 -19l-7 -14l-9 -11l-12 -6l-16 -2z" />
    <glyph glyph-name="zero" unicode="0" horiz-adv-x="684" 
d="M276 -13l-15 3l-16 3l-19 7l-11 7l-4 4l-7 5l-13 7l-14 13l-17 11l-7 7l-9 12l-11 13l-5 7l-9 9l-5 10l-2 7l-4 4l-6 11l-4 11l-3 10l-5 13l-4 9l-1 7l-4 11l-1 12l-4 16l-5 22l-2 12v7l-2 6v7l-3 12v30l-4 25l2 12l1 11l-2 16l2 18l1 11l2 24l5 20v9l1 11l2 8l-1 7l5 14
l7 23l7 21l4 11l6 17l11 20l5 11l7 9l6 7l6 12l11 13l8 9l11 10l14 10l10 8l38 20l12 7l29 9l20 4h11l10 3l17 1h23l25 -1l16 -3l15 -2l27 -8l23 -9l16 -7l16 -8l22 -17l11 -6l11 -10l5 -8l11 -12l10 -14l10 -18l6 -8l4 -10l5 -12l5 -10l6 -17l7 -18l2 -10l1 -11l4 -15
l2 -12l4 -23l2 -35l4 -17v-22l2 -22l1 -8l-2 -19l-2 -26l-2 -17v-14l-1 -17l-3 -13l-1 -12l-2 -11l-2 -19l-7 -23l-4 -14l-5 -13l-8 -18l-7 -13l-6 -11l-4 -11l-8 -13l-16 -19l-20 -21l-24 -18l-22 -15l-17 -10l-13 -7l-13 -4l-34 -6l-29 -4l-28 1l-29 -3zM376 102l18 3l7 4
l6 1l14 6l13 10l8 6l12 12l10 16l7 13l6 11l5 15l7 15l4 13l3 15l2 16l1 14l2 14l1 14l3 14l-2 19l2 23v16l-2 11l-2 21l-2 22l-2 13l-3 13l-4 20l-4 14l-3 10l-3 9l-1 7l-7 19l-10 19l-5 6l-6 8l-5 6l-16 13l-11 6l-7 5l-15 5l-22 5l-27 2l-20 1l-21 -3l-21 -4l-11 -5
l-18 -12l-19 -18l-13 -15l-10 -15l-11 -26l-4 -17l-1 -7l-9 -42l-3 -36l-2 -18l-2 -15l-2 -16l3 -11l-2 -10l1 -6l1 -13l1 -21l1 -22l3 -23l3 -17l4 -14l4 -11l5 -14l8 -15l8 -16l11 -18l21 -21l23 -13l17 -7l24 -7l27 -2z" />
    <glyph glyph-name="one" unicode="1" horiz-adv-x="493" 
d="M354 0l-15 2l-27 1l-24 -3l-25 1l-20 -1l-16 -1l-83 1l-24 2l-18 8l-9 15l-4 11l-2 15l1 16v12l5 14l7 11l13 5l20 4l21 1l14 1l7 -1h7l9 -1l8 1l7 8l3 21v34l-1 18l-1 32l1 29l-3 27l3 15l-1 12l2 25v29l1 14l-2 19l1 21l-1 23l1 22l-1 10v16l2 13l-2 15l-3 19l-7 5h-2
l-5 -2l-22 -12l-25 -15l-14 -6l-12 -4l-8 -2l-6 1l-11 3l-10 6l-6 5l-4 6l-7 9l-9 13l-6 17l-1 14l1 10l5 9l6 7l11 8l11 6l11 5l15 8l17 8l17 11l8 3l5 3l7 4l9 6l8 3l6 2l6 4l9 5l42 21l25 5l21 -1l11 -2l10 -1l7 -6l9 -9l5 -16v-26l-1 -23l-1 -22l-1 -18l1 -41l1 -36v-22
l2 -28l-2 -31l-2 -35v-22l1 -19l1 -20v-17l-2 -35v-71l3 -32v-25l1 -16l2 -9l4 -5l10 -2l12 -2l19 2h24l16 -2l14 -9l7 -13l1 -27v-30l-6 -14l-6 -10l-10 -5l-11 -4h-13z" />
    <glyph glyph-name="two" unicode="2" horiz-adv-x="652" 
d="M122 2l-6 -1l-7 2l-8 2l-2 1l-7 6l-10 9l-10 12l-7 12l-5 9l1 11l1 10l3 8l1 9l-1 3l1 8l4 13l3 10l6 9l5 8l7 14l9 10l9 11l5 8l6 7l10 8l8 10l3 6l16 6l5 5l10 8l16 10l14 11l14 10l14 8l15 9l11 6l4 6l7 2l9 4l9 6l11 7l11 6l7 6l8 4l16 10l14 6l4 3l3 5l11 6l9 5l3 4
l6 3l12 9l11 12l11 10l9 12l7 10l6 14l5 14l2 11v13l1 18l-3 19l-5 16l-10 19l-17 18l-18 14l-24 14l-23 7l-16 1l-14 -1l-13 3l-10 2l-12 -2l-16 -2l-9 -1l-6 -1l-10 -5l-9 -8l-1 -5h-6l-5 -4l-3 -7l-10 -4l-7 -11l-6 -11l-10 -11l-11 -14l-7 -9l-4 -8l-9 -3l-11 -2h-12
l-14 3l-16 5l-14 9l-7 8l-5 10l-4 9l-1 5l4 9l7 22l8 20l5 8l6 4l7 9l6 8l4 4l13 14l22 18l17 9l5 4l9 4l14 9l9 4l7 1l12 6l11 4l12 2l6 3l8 6l15 1l20 2l18 -1l11 -1l17 -1l15 -2l12 -2l15 -5l18 -4l15 -6l15 -3l15 -9l10 -5l6 -5l9 -5l11 -8l12 -8l10 -10l8 -12l6 -8
l6 -6l13 -19l10 -23l6 -15l3 -13l2 -8l3 -11l1 -13l2 -24v-15l-1 -16v-11l-2 -10l-4 -10l-3 -9l-4 -10l-4 -9l-5 -7l-4 -5l-3 -5v-8l-3 -6l-4 -4l-5 -6l-7 -5l-1 -6l-5 -10l-8 -5l-2 -1l-1 -3l2 -1l-2 -2l-4 -3l-2 -1l-2 1l-3 -3v-7l-5 -4l-8 -8l-7 -6l-8 -6l-7 -4l-5 -5
l-12 -10l-6 -1l-8 -1l-7 -3l-8 -6l-12 -8l-14 -13l-4 -6l-1 -4l-4 -4l-6 3l-4 -1l-5 -4l-2 -2l-4 -1l-8 -3l-9 -7l-5 -6l-5 -3l-8 -2l-6 -5l-3 -6l-5 1l-5 -2l-2 -2l3 -2v-1l-5 -4l-9 -4l-8 -5l-7 -1l-6 -1l-3 -7l-5 -1h-6l-4 -3l-10 -10l-11 -13l-8 -10v-6l11 -7h55l18 -4
l11 2h16l19 1l5 -2l4 -2l4 2l5 1l4 -1l6 -3l10 3l13 -1l12 -3l8 3l7 2h26l13 -3l8 2l9 -1l10 -3l8 1l9 2l11 -1l8 -2h8l7 -2l10 -10l8 -14l1 -12v-14l-1 -12l-2 -10l-1 -6l-3 -7l-9 -9l-9 -8l-10 2l-14 1l-12 -2l-9 -1l-6 -2h-5l-5 3l-9 -1l-9 1l-5 -4l-9 3h-15l-11 -1h-11
l-18 2h-18l-10 -2l-6 1h-7l-11 2l-9 -1l-8 -3l-51 4h-13l-10 -1h-5l-7 2l-6 -3h-9l-3 -1l-17 -2l-25 5h-11l-5 -3l-5 -2l-10 2l-16 -3z" />
    <glyph glyph-name="three" unicode="3" horiz-adv-x="656" 
d="M303 -21l-21 2l-25 6l-25 5l-18 6l-19 9l-21 12l-5 3l-8 3l-9 6l-27 22l-17 19l-12 15l-8 12l-6 13l-5 6l-3 8l-5 10l-4 10v11l2 9l7 10l19 17l20 9l7 2l9 3l21 -3l15 -10l7 -9l9 -11l9 -13l14 -21l16 -16l13 -8l15 -7l17 -6l23 -6l17 -3l22 -2l25 3l16 3l14 7l11 5l11 8
l11 9l17 18l12 22l4 9l4 15l6 19l1 15l1 8l-1 3l-7 24l-18 36l-20 21l-17 13l-12 7l-5 2l-3 3l-7 3l-6 -2l-3 -2h-4l-6 1l-25 2h-10l-17 -1l-14 -3l-20 -3l-25 -10l-27 -7l-24 11l-9 8l-8 8l-11 17l-5 17v14l4 12l5 6l12 12l6 5l10 7l9 7l10 7l7 8l4 3l8 10l8 9l2 1l20 16
l19 20l3 4l9 9l22 23l9 9l8 9l6 9l-1 8l-5 3l-9 -1h-12l-8 1l-4 5l-7 -5l-5 5l-3 -2l-2 -2l-9 -2l-8 1l-2 2h-3l-5 -3h-51l-23 -3h-27l-10 2l-12 2l-20 4l-7 5l-2 7l-4 7l-2 14l-2 20v17l4 13l11 13l19 6l18 1l45 4l6 -1l11 1l16 1l11 -2l5 1l6 -2h40l7 2l10 -3l15 2l12 -1
l7 -2l9 2l11 -1l7 -3l10 1l14 -1l13 2l13 1l11 -2l5 1l5 -1l11 1l10 -2l3 1h5l11 -1l12 1l10 -1l11 -3h8l12 3l10 -8l7 -16l5 -13v-17l-2 -24l-10 -18l-16 -15l-11 -11l-10 -11l-15 -15l-9 -8l-11 -11l-18 -16l-10 -5l-5 -1l-2 -7l-8 -10l-12 -10l-9 -7l-7 -9l-11 -9l-5 -12
l3 -4l2 -2l17 -2l23 -8l18 -7l14 -5l14 -8l17 -8l12 -10l7 -5l8 -10l22 -25l8 -8l3 -8l7 -9l5 -13l5 -12l5 -17l2 -12l1 -9l2 -10v-9l2 -18l-2 -23v-12l-2 -7l-2 -15l-5 -18l-6 -20l-6 -15l-6 -13l-10 -15l-9 -12l-30 -30l-7 -4l-6 -5l-10 -10l-16 -11l-12 -7l-13 -6l-15 -8
l-22 -8l-13 -3l-15 -2l-9 -2l-17 -2h-22z" />
    <glyph glyph-name="four" unicode="4" horiz-adv-x="663" 
d="M386 2h-39l-12 1l-16 -1l-26 1l-20 1l-11 5l-7 17l-3 21v16l3 16l5 17l7 11l10 6l12 3h41l10 2l13 1l10 1l8 4l4 15l1 12l1 7l-3 14l-8 13l-14 5l-27 1h-25l-10 -2l-8 1l-8 -1h-24l-29 -1l-16 1l-13 -1l-9 1h-25l-23 -1l-33 2l-22 11l-12 14l-4 9l-7 9l-7 15l2 14l2 8
l7 13l11 18l19 30l17 25l7 9l5 7l6 11l6 10l6 11l6 9l2 8l5 9l5 7l5 9l3 7l5 7l8 13l2 10l4 8l7 11l4 10l4 8l5 12l7 15l6 16l8 17l5 15l7 22l10 30l3 16l3 7l2 7l7 9l5 8l5 3l6 5l6 2h42l24 -16l13 -25l1 -8l-2 -20l-5 -16l-9 -30l-5 -19l-4 -17l-8 -19l-5 -17l-7 -17
l-8 -17l-5 -10l-3 -10l-10 -20l-15 -27l-9 -17l-3 -8l-11 -18l-11 -19l-19 -38v-5l15 -3l26 1h47l35 1l25 5l4 22v26l1 11l1 21l1 27l-2 25v18l-1 19l1 13l5 8l11 11l4 3l5 3l11 3l20 2l23 -4l17 -1l13 -13l7 -14l2 -8l-1 -10l2 -11v-15l-1 -11l1 -15l-1 -17v-32l-1 -4v-25
l1 -27l1 -5l3 -5l22 -4l33 -1l22 -1l12 -3l6 -3l10 -9l5 -15l2 -13l-1 -15l-1 -19l-7 -17l-15 -16l-27 -4l-34 -2l-24 -5l-5 -7l-2 -6l-1 -5l1 -14v-17l2 -9l2 -4l3 -3l7 -2l6 -1l9 1l36 -4h13l12 -2l9 -4l7 -7l8 -14l4 -22v-23l-6 -17l-3 -9l-10 -9l-17 -4l-22 -1l-26 1
l-19 -1h-19l-13 1l-11 -1h-17l-17 -1l-11 1l-13 -1z" />
    <glyph glyph-name="five" unicode="5" horiz-adv-x="653" 
d="M300 -17l-19 1l-15 5l-18 3l-11 2l-26 7l-18 9l-14 3l-7 4l-15 11l-14 9l-7 6l-11 12l-13 13l-13 12l-16 22l-9 17l-8 24l-1 8l4 11l5 17l7 10l9 8l17 7l14 4l9 -3l16 -1l11 -3l8 -6l9 -12l20 -32l3 -3l4 -5l8 -7l5 -5l8 -5l9 -7l9 -6l8 -5l7 -2l15 -5l15 -3l8 -2l14 -2
l11 2l16 1l28 4l31 13l21 16l9 8l7 6l1 3l4 9l8 16l6 14l5 15l2 13v18l1 13l-3 18l-3 10l-6 16l-10 22l-9 14l-7 7l-19 15l-25 14l-9 4l-36 6l-30 -3l-33 -9l-23 -12l-23 -19l-21 -23l-11 -17l-9 -14l-14 -11l-18 -4l-20 -1l-15 2l-14 3l-13 8l-13 12l-5 19l4 15l4 19l2 12
v10l3 11l3 18l4 15l1 11l3 14l2 17l4 20l3 22l5 26l4 21l2 18l3 14l4 12l4 21l4 15l4 22l3 16l4 16l10 20l6 7l8 6l8 7l8 1l37 -1h8l10 -4h10l9 -5l15 -2l10 -3l8 -1l7 -2l11 -1h8l7 -1l8 -2h10l16 -1l13 -1l8 2l9 -2l34 2l7 2l7 4l30 9l11 4l25 -2l11 -5l8 -4l13 -13l8 -12
l3 -17l-2 -28l-5 -10l-10 -8l-15 -7l-14 -6l-21 -7l-15 -4l-22 -4l-19 -4l-21 -2l-26 2l-16 1h-12l-5 -1l-13 1l-28 5h-12l-20 3l-15 -1l-4 -9l-3 -7l-3 -20l-4 -17l-5 -22l-3 -14v-13l4 -11l10 -2l11 3l12 4l16 2l16 5l7 2l5 1l6 -1l8 1l12 -2l12 1l7 2h18l34 -8l8 -2
l14 -3l13 -5l19 -9l14 -9l13 -9l19 -16l16 -18l9 -13l12 -18l10 -16l5 -11l7 -21l4 -21l3 -18l3 -15v-35l-2 -24v-12l-3 -15l-4 -22l-7 -23l-13 -29l-13 -24l-10 -14l-7 -10l-8 -7l-24 -22l-26 -17l-10 -4l-10 -5l-28 -13l-15 -6l-15 -5l-17 -4l-29 -2h-14z" />
    <glyph glyph-name="six" unicode="6" horiz-adv-x="656" 
d="M334 -19l-18 1l-22 3l-17 4l-14 1l-12 4l-12 5l-10 3l-5 4l-14 7l-16 9l-13 7l-15 12l-15 16l-14 16l-10 14l-7 7l-5 12l-8 12l-9 23l-11 25l-5 14l-4 19l-1 14l-2 10l-2 15v13l1 9l-1 8l-2 18l2 24l2 13v13l5 17l4 13l5 12l1 11l5 12l3 12l4 6l4 12l4 10l3 9l3 6l3 10
l7 15l8 14l4 8l8 11l7 12l9 12l13 14l12 11l8 7l8 10l9 10l5 2l3 6l6 5l6 6l11 8l11 9l12 7l13 7l30 18l11 5l19 10l24 11l16 6l26 9l10 1l18 1l18 -1l8 -2l12 -8l10 -11l4 -12l2 -18l-1 -14l-4 -20l-9 -11l-13 -6l-16 -5l-4 -3l-8 -4l-10 -1l-15 -6l-22 -8l-22 -11l-21 -12
l-13 -8l-25 -18l-13 -11l-15 -15l-5 -8l-3 -8l6 -4l8 2l7 2l11 2l8 2l21 1l44 -3l10 2l15 -3l14 -1l7 -1l5 -3l9 -2l18 -8l21 -10l17 -12l20 -15l14 -9l9 -10l12 -21l10 -16l3 -9l4 -8l6 -13l4 -15l6 -21l6 -37l3 -25l1 -13l-1 -11v-10l-3 -15l-4 -24l-5 -23l-9 -24l-8 -16
l-5 -6l-4 -8l-7 -7l-26 -32l-21 -16l-15 -11l-13 -8l-11 -9l-10 -4l-12 -6l-16 -5l-8 -3l-5 -1l-11 -4l-15 -4l-24 -4l-9 -2zM344 96l15 2l17 5l20 9l19 12l12 9l13 12l11 20l6 15l4 14l3 10l1 7l2 22l2 17l-1 6l-1 11l-2 10l-4 8l-6 14l-10 15l-8 11l-5 8l-4 5l-8 5l-13 10
l-29 12l-27 4l-20 2l-28 -1l-21 -6l-10 -4l-23 -17l-23 -24l-16 -23l-10 -23l-3 -10l-1 -9l-1 -17l2 -15l1 -10l9 -26l7 -19l9 -14l17 -20l9 -8l21 -13l23 -11l10 -2l20 -3h21z" />
    <glyph glyph-name="seven" unicode="7" horiz-adv-x="600" 
d="M207 -3l-22 8l-9 8l-7 18l-5 20l-1 30l4 47l4 26l3 13l2 23l7 21l11 44l5 12l6 19l11 28l8 23l20 41l4 7l7 14l13 23l8 14l11 19l14 23l6 9l5 9l10 15l10 17l9 11l11 17l7 20l-5 5l-7 1l-13 2h-65l-25 1l-14 -1l-18 1l-16 -1l-10 2l-7 -1l-15 -1l-29 1h-47l-12 4l-12 9
l-7 8l-5 11l-2 22l1 16l3 11l2 5l5 5l6 7l7 7l10 5l12 2l16 1l11 1l19 -1l24 1l15 -1l11 2h79l14 1l16 -1l17 1l23 -2h35l14 -2h13l17 1h10l21 -1h23l20 -1l15 -4l9 -4l15 -12l9 -17l3 -7l2 -13l3 -17l-8 -18l-14 -16l-8 -8l-9 -10l-9 -6l-5 -11l-13 -16l-7 -8l-7 -9
l-11 -17l-13 -17l-16 -19l-12 -20l-8 -10l-8 -15l-14 -20l-11 -21l-10 -18l-9 -16l-9 -19l-8 -19l-6 -12l-7 -19l-11 -29l-7 -18l-4 -13l-3 -15l-3 -14l-4 -15l-2 -15l-2 -9l-1 -9l-4 -22v-34l-2 -22l-1 -15l-2 -13l-6 -14l-6 -12l-6 -6l-8 -3l-17 -3l-16 -1l-7 -1z" />
    <glyph glyph-name="eight" unicode="8" horiz-adv-x="694" 
d="M321 -19l-17 4h-14l-9 2h-16l-16 4l-10 5l-8 3l-5 2l-10 3l-16 5l-12 8l-15 7l-13 10l-5 3l-5 5l-9 5l-12 11l-9 11l-11 17l-11 15l-5 13l-3 9l-4 14l-2 16l-3 10v19l-1 17l2 16l1 12l2 15l6 15l3 10l5 15l3 8l7 15l10 15l9 10l14 14l8 7l3 7v10l-5 10l-9 14l-9 13
l-10 20l-9 19l-4 13l-4 12l-1 11l-1 9l1 5l-3 9v9l2 5l1 7v11l2 11l2 8l2 16l5 12l5 15l10 16l8 10l10 11l9 14l11 11l10 4l15 9l22 14l18 8l14 3l13 7l14 3l5 1l8 1l12 3l7 3h26l7 2h53l12 -4l17 -4l11 -3l23 -6l28 -13l18 -10l17 -12l18 -17l18 -18l12 -18l6 -12l7 -13
l5 -15l2 -8l5 -11l3 -18v-16l1 -17l-1 -13l-2 -10l-4 -23l-5 -17l-8 -20l-6 -9l-8 -11l-6 -9l-9 -12l-9 -15l9 -20l15 -14l8 -10l15 -21l11 -23l7 -22l10 -30l2 -32l1 -11v-11l-2 -9l-1 -13l-4 -15l-3 -11l-5 -8l-4 -7l-3 -9l-8 -10l-5 -8l-15 -18l-17 -19l-10 -9l-17 -11
l-13 -9l-25 -10l-42 -13l-12 -2l-17 -1h-17l-8 -2l-9 -1l-15 -3l-19 -1zM373 96l13 1l20 3l18 4l7 2l8 1l10 7l14 9l11 9l7 8l6 12l5 19l4 19l-3 18l-5 17l-16 21l-24 20l-19 10l-12 6l-6 1l-11 3l-18 3l-16 4h-15l-19 1l-21 -3l-22 -5l-20 -5l-26 -14l-29 -24l-11 -24
l-5 -21v-17l3 -10l3 -12l7 -14l21 -23l22 -13l21 -7l32 -7h16l28 -2zM373 419l16 3l30 12l27 15l19 25l8 27l1 16l-7 25l-14 19l-11 11l-11 8l-12 7l-13 8l-11 2l-9 2l-11 1l-18 1l-21 2l-11 -3h-7l-15 -4l-21 -6l-16 -8l-17 -10l-13 -11l-9 -12l-7 -19l-4 -23l3 -18l3 -14
l9 -10l9 -8l11 -10l15 -9l15 -7l23 -7l19 -6l25 -1z" />
    <glyph glyph-name="nine" unicode="9" horiz-adv-x="655" 
d="M206 -6l-9 2l-12 8l-10 11l-4 12l-2 18l1 14l4 20l9 11l13 6l16 5l4 3l8 4l10 1l15 6l22 8l22 11l21 12l13 8l25 18l13 11l15 15l5 8l3 8l-6 4l-8 -2l-7 -2l-11 -2l-8 -2l-21 -1l-44 3l-10 -2l-15 3l-14 1l-7 1l-5 3l-9 3l-18 7l-21 10l-17 12l-20 15l-14 10l-8 9l-13 21
l-10 16l-3 9l-4 8l-6 13l-4 15l-6 21l-6 37l-3 25l-1 13l1 12v9l3 15l4 24l5 23l9 24l9 16l4 6l4 8l7 7l26 32l21 17l15 10l13 8l11 9l10 5l12 5l16 5l8 3l5 1l11 4l15 4l24 4l9 2l11 -2l18 -1l22 -3l17 -4l14 -1l12 -4l12 -5l10 -3l5 -4l14 -7l16 -9l13 -7l15 -12l15 -16
l14 -16l11 -13l6 -8l5 -12l8 -12l9 -23l11 -25l5 -14l4 -19l1 -14l2 -10l2 -15v-13l-1 -9l1 -8l2 -18l-1 -24l-3 -13v-13l-5 -17l-4 -13l-5 -12l-1 -10l-5 -13l-3 -12l-4 -6l-4 -12l-4 -10l-3 -9l-3 -6l-3 -10l-7 -15l-8 -14l-4 -8l-8 -11l-7 -12l-9 -11l-13 -15l-12 -11
l-8 -7l-8 -10l-9 -10l-5 -2l-3 -6l-12 -10l-10 -9l-12 -9l-12 -7l-13 -7l-30 -18l-11 -4l-19 -11l-24 -11l-16 -6l-26 -9l-10 -1l-18 -1zM353 324l21 6l10 4l23 17l23 24l16 23l10 23l3 10l1 9l1 17l-2 15l-1 10l-9 26l-7 19l-9 14l-16 20l-10 8l-21 13l-23 11l-10 3l-20 2
h-21l-15 -2l-17 -5l-20 -9l-19 -12l-12 -9l-13 -12l-11 -20l-6 -15l-4 -14l-3 -10l-1 -7l-2 -22l-2 -16l1 -7l1 -10l2 -11l4 -7l6 -15l10 -15l8 -11l6 -7l3 -6l8 -5l13 -10l29 -12l27 -4l20 -2z" />
    <glyph glyph-name="colon" unicode=":" horiz-adv-x="305" 
d="M117 327l-14 12l-10 10l-8 18l-4 15v20l8 24l12 13l12 9l16 8l19 6l25 -3l22 -11l17 -21l11 -24l2 -10v-11l-3 -16l-8 -16l-15 -14l-25 -13l-30 -3zM117 -13l-14 12l-10 10l-8 18l-4 15v20l8 24l12 13l12 9l16 8l19 6l25 -3l22 -11l17 -21l11 -24l2 -10v-11l-3 -16
l-8 -16l-15 -14l-25 -13l-30 -3z" />
    <glyph glyph-name="semicolon" unicode=";" horiz-adv-x="300" 
d="M68 -199l-14 5l-13 6l-11 8l-4 6l-4 8l-2 12l6 23l6 17l13 30l9 17l9 24l12 25l8 20l12 22l13 28l10 21l8 8l11 8l13 1l12 -2l10 -5l21 -10l15 -12l5 -9l1 -13l-5 -17l-11 -25l-7 -15l-8 -20l-4 -11l-8 -18l-4 -14l-8 -15l-10 -24l-6 -15l-4 -5l-11 -24l-20 -30l-17 -8
l-11 -1zM112 325l-14 12l-10 10l-8 18l-4 15v20l8 24l12 13l12 9l16 8l19 6l25 -3l22 -11l17 -21l11 -24l2 -10v-11l-3 -16l-8 -16l-15 -14l-25 -13l-30 -3z" />
    <glyph glyph-name="less" unicode="&#x3c;" horiz-adv-x="575" 
d="M422 125l-17 10l-27 13l-32 17l-16 7l-19 13l-21 11l-7 3l-17 10l-15 10l-10 6l-13 8l-9 6l-12 5l-14 10l-12 6l-10 4l-15 9l-21 11l-24 13l-18 12l-11 13l-1 19l6 17l9 12l14 9l16 8l7 7l14 7l21 12l16 8l15 9l11 6l14 8l27 16l16 12l12 5l22 13l18 11l9 3l16 11l24 12
l11 7l15 7l18 10l16 3l17 -3l16 -9l13 -15l11 -20l7 -19l-1 -13l-13 -21l-19 -13l-18 -8l-24 -14l-25 -14l-13 -7l-13 -9l-45 -25l-20 -8l-10 -8l-5 -9l3 -8l8 -6l10 -8l14 -7l10 -4l4 -3l5 -4l8 -3l10 -5l35 -21l30 -17l11 -5l18 -9l22 -13l14 -13l7 -14l-1 -14l-4 -17
l-10 -19l-17 -21l-20 -7z" />
    <glyph glyph-name="equal" unicode="=" horiz-adv-x="619" 
d="M382 191l-17 -1l-22 1l-25 -1l-23 1l-16 -1h-14l-13 1l-9 1h-17l-22 -2l-27 1h-17l-17 -1h-20l-19 3l-13 8l-7 13l-3 11l-1 22v22l3 14l8 13l19 8l33 3l15 -2h12l19 -3l17 2h9l7 1l9 -1h47l15 1l8 -2l12 1h11l14 -1h38l17 3h19l14 2l36 -2l9 -1l15 1l15 -1l6 -4l17 -9
l9 -15l2 -8l1 -12l2 -11v-22l-6 -17l-5 -4l-15 -8l-16 -3h-22l-24 -1l-16 -2zM382 354l-17 -1l-22 1l-25 -1l-23 1l-16 -1h-14l-13 1l-9 1h-17l-22 -2l-27 1h-17l-17 -1h-20l-19 3l-13 8l-7 13l-3 11l-1 22v22l3 14l8 13l19 8l33 3l15 -2h12l19 -3l17 2h9l7 1l9 -1h47l15 1
l8 -2l12 1h11l14 -1h38l17 3h19l14 2l36 -2l9 -1l15 1l15 -1l6 -4l17 -9l9 -15l2 -8l1 -12l2 -11v-22l-6 -17l-5 -4l-15 -8l-16 -3h-22l-24 -1l-16 -2z" />
    <glyph glyph-name="greater" unicode="&#x3e;" horiz-adv-x="575" 
d="M112 128l-17 21l-10 19l-3 17l-2 14l7 14l14 13l22 13l18 9l11 5l16 10l14 7l35 21l11 5l8 4l8 6l10 4l14 7l11 8l7 6l3 8l-4 9l-11 8l-20 8l-45 25l-12 9l-14 7l-24 14l-25 14l-18 8l-19 13l-12 21l-2 13l7 19l12 20l12 15l16 9l17 3l16 -3l18 -10l16 -8l10 -6l24 -12
l16 -11l9 -3l18 -11l22 -13l12 -5l16 -12l27 -16l14 -8l11 -6l15 -9l16 -8l21 -12l14 -7l7 -7l16 -8l14 -9l9 -12l6 -17l-1 -19l-11 -13l-18 -12l-25 -13l-20 -11l-15 -9l-10 -4l-12 -6l-14 -10l-12 -5l-9 -6l-13 -8l-10 -6l-32 -20l-8 -3l-20 -11l-19 -13l-16 -7l-32 -17
l-27 -13l-17 -10l-21 -4z" />
    <glyph glyph-name="question" unicode="?" horiz-adv-x="659" 
d="M314 156h-8l-48 13l-15 10l-25 20l-14 19l-8 13l-9 24l-3 32l2 29l3 16l8 21l14 20l10 12l12 9l7 8l7 5l29 16l21 10l8 3l17 6l48 19l24 11l18 9l9 4l8 5l16 11l12 17l1 16l-2 16l-8 14l-7 5l-12 9l-20 11l-14 6l-13 4l-13 2l-17 3l-21 2l-16 -3l-18 -2l-17 -6l-7 -3
l-19 -12l-28 -21l-23 -31l-19 -27l-13 -10l-11 -4h-21l-21 4l-11 7l-17 11l-8 14l-2 14l1 16l7 22l10 21l7 10l8 11l13 16l23 23l10 8l17 11l19 11l17 8l33 13l25 8l25 4l34 2l25 -1l19 -1l11 -2l18 -3l22 -7l21 -7l12 -6l14 -6l13 -6l34 -25l12 -10l10 -15l13 -16l8 -16
l9 -24l4 -13l2 -13l2 -16v-34l-4 -14l-9 -25l-10 -18l-12 -15l-10 -12l-15 -13l-20 -12l-11 -4l-13 -9l-47 -21l-9 -3l-15 -7l-54 -18l-23 -11l-13 -8l-7 -11l1 -16l20 -8l16 5l9 7l6 12l7 12l11 9l9 4l15 5l20 1l12 -3l9 -2l9 -3l12 -13l8 -12l2 -6l2 -20l-6 -26l-6 -16
l-9 -15l-7 -9l-4 -5l-9 -8l-16 -11l-23 -12l-19 -7l-7 -2l-14 -2l-24 -3zM307 -18l-8 2l-11 5l-14 13l-9 19l-4 12l-1 13v15l4 17l6 10l11 14l18 13l14 3l12 3l11 1l17 -2l16 -9l18 -12l12 -16l6 -25l-3 -28l-8 -16l-9 -10l-11 -12l-21 -9l-15 -2h-17z" />
    <glyph glyph-name="at" unicode="@" horiz-adv-x="1111" 
d="M486 -124l-14 3l-13 4l-20 4l-29 7l-17 5l-10 5l-16 5l-22 12l-28 13l-26 20l-51 37l-31 33l-19 22l-15 18l-13 18l-7 10l-8 13l-7 10l-5 10l-7 15l-6 16l-5 17l-6 15l-4 11l-3 11l-4 12l-6 19v14l-3 9l-4 18v27l-2 17l-3 11l-2 10l3 15l2 15l2 8l1 13l2 14l2 12l1 11
l2 18l7 24l5 20l7 17l6 14l5 14l5 10l3 12l6 11l4 9l9 14l7 16l10 17l13 13l6 9l18 22l32 31l18 15l28 21l14 8l13 9l21 12l18 9l14 5l16 9l19 5l25 7l36 7l23 5l25 3l47 4l15 -1l51 -1l29 -5l24 -3l20 -4l17 -7l17 -6l25 -10l17 -7l9 -3l8 -5l15 -10l21 -12l10 -6l8 -8
l18 -11l26 -22l22 -23l9 -10l11 -14l16 -19l10 -16l11 -18l8 -17l5 -9l9 -16l11 -19l4 -13l3 -11l2 -8l3 -6l5 -13l4 -14l5 -16l2 -25l3 -22l2 -12l1 -13l-1 -26l1 -21v-7l-3 -13l-1 -28l-1 -22l-2 -8l-3 -11l-4 -22l-4 -11l-9 -20l-12 -22l-6 -13l-23 -28l-8 -9l-7 -8
l-24 -17l-36 -17l-46 -6l-21 1l-20 5l-18 5l-31 15l-22 17l-9 8l-7 4l-13 -2l-24 -17l-29 -14l-20 -7l-20 -5l-13 -3l-13 -1l-22 -3l-14 2h-17l-28 2l-33 8l-11 3l-15 5l-20 7l-11 7l-6 4l-7 4l-5 4l-5 2l-11 9l-14 11l-6 5l-9 10l-12 13l-10 9l-21 35l-9 18l-6 15l-4 18
l-7 22l-1 15v14l-2 28v25l4 14l3 14l1 11l3 8l5 14l6 19l7 12l3 7l8 15l13 18l9 9l8 11l13 15l25 17l20 11l13 9l15 6l17 5l13 5l39 9l17 1l29 1l31 -2l22 -4l21 -8l20 -9l16 -11l12 -8l8 -6l9 -4l8 5l6 5l8 7l15 5h19l27 -4l21 -8l8 -7l8 -10l1 -11v-17l2 -34l-1 -40v-35
l-3 -32v-45l2 -25l-2 -25v-20l1 -16l4 -23l5 -18l7 -6l13 -6l13 -1l10 3l13 8l12 16l8 14l2 8l3 9l3 11l3 10l3 7l4 19l2 24l3 18l-2 18l1 16l-3 18l-2 15l-2 11l-1 11l-5 20l-9 26l-9 20l-6 19l-18 33l-19 29l-9 13l-13 11l-25 27l-61 37l-31 15l-20 11l-13 5l-11 3l-43 7
h-52l-11 -1h-9l-18 -1h-10l-23 -4l-26 -5l-18 -7l-19 -5l-10 -4l-11 -4l-25 -14l-10 -4l-19 -13l-20 -14l-9 -8l-7 -7l-22 -21l-15 -18l-19 -30l-8 -15l-5 -8l-15 -35l-5 -13l-4 -12l-6 -17l-4 -21l-4 -16l-2 -11l-1 -17l-2 -12l-1 -23l1 -29l3 -19l2 -22l3 -15l3 -9l4 -22
l10 -22l6 -13l5 -11l12 -25l11 -21l5 -8l10 -13l11 -12l13 -15l17 -15l29 -22l14 -9l18 -13l16 -7l9 -6l20 -7l17 -9l44 -12l18 -1l9 -2l21 -2l30 1h24l26 4l19 4l50 17l15 7l12 4l13 5l14 8l17 9l14 6l18 6l23 -2l25 -14l16 -23l5 -17l-2 -10l-5 -14l-15 -19l-16 -13
l-17 -11l-23 -9l-30 -15l-45 -18l-43 -10l-29 -6l-15 -1l-20 -2l-19 -1l-8 -1l-13 -1l-15 -3zM553 200l26 5l23 9l25 18l34 37l9 17l8 20l5 19l1 30l-2 25l-8 27l-12 22l-12 14l-14 17l-12 10l-10 8l-19 8l-20 7l-31 2l-31 -2l-22 -6l-18 -9l-8 -3l-12 -8l-21 -18l-18 -28
l-9 -21l-2 -7l-3 -14l-3 -19v-19l4 -26l4 -17l2 -7l6 -14l16 -25l20 -19l7 -6l13 -7l20 -12l12 -4l22 -4h30z" />
    <glyph glyph-name="A" unicode="A" horiz-adv-x="768" 
d="M110 -12l-13 3l-18 9l-14 11l-10 12l-4 12v18l9 18l6 15l5 11l6 12l9 21l6 16l19 38l10 22l9 23l16 31l10 23l7 14l7 15l8 17l14 36l12 21l8 22l14 30l16 37l9 20l15 38l11 23l5 15l9 17l7 14l2 8l4 10l5 14l7 10l6 12l6 11l4 8l7 12l12 10l25 5h27l13 -3l11 -10l7 -13
l6 -12l10 -23l10 -22l19 -37l6 -16l7 -13l6 -18l8 -18l5 -14l7 -14l11 -25l11 -22l7 -18l7 -12l4 -11l7 -15l9 -16l6 -16l6 -17l6 -10l5 -13l10 -18l8 -20l13 -31l18 -34l10 -24l7 -15l4 -9l4 -13l12 -24l9 -19l5 -8l9 -19l7 -21l5 -17l-4 -22l-11 -13l-20 -10l-35 -9l-23 5
l-9 8l-10 10l-3 13l-9 19l-11 23l-6 11l-9 20l-11 23l-4 9l-7 12l-9 16l-7 13l-10 7l-20 2l-25 -1h-117l-33 1l-26 -2l-14 1l-17 -2l-16 -1l-13 -7l-6 -9l-20 -40l-10 -18l-3 -11l-5 -10l-6 -14l-8 -17l-5 -15l-10 -16l-12 -18l-11 -9l-16 -4zM465 292l1 1l3 1l4 9l-3 18
l-6 15l-22 39l-10 19l-13 32l-8 19l-7 18l-11 26l-12 10l-8 -16l-8 -25l-17 -38l-13 -27l-9 -25l-8 -18l-10 -20l-1 -8l-2 -9v-10l7 -7l17 -1h18l28 -2l67 -2z" />
    <glyph glyph-name="B" unicode="B" horiz-adv-x="770" 
d="M353 -3l-25 1l-19 -1h-13l-16 2l-42 -1l-11 -1l-22 1l-35 -2l-22 3l-10 2l-9 6l-11 17l-3 29l-1 32l2 34v23l-2 27l-2 34v68l1 33l-1 22l-1 30v29l1 19l-1 28v17l-1 32l1 24v13l1 19v26l2 21v42l-1 22l2 15l6 19l17 15l22 5l21 -1l14 -1l40 1h25l24 -1l12 1h38l12 -2
l17 -1l31 1l16 2h66l46 -5l26 -7l13 -4l45 -22l12 -10l11 -11l10 -11l11 -19l14 -31l10 -31l3 -16v-39l-1 -15l-8 -30l-10 -29l-11 -17l-15 -20l-8 -15l4 -6l17 -11l14 -15l14 -22l11 -26l11 -30l5 -21l4 -19l1 -18l-1 -27l-8 -30l-4 -17l-8 -18l-10 -22l-12 -12l-10 -16
l-20 -17l-27 -15l-21 -9l-15 -4l-26 -8l-26 -4l-13 -3l-15 -1l-10 -1l-17 -2l-18 1l-26 -1h-26zM420 111l24 1l26 3h17l19 2l17 1l16 5l10 6l13 12l10 16l4 8l5 11l2 17l2 20l-2 16l-5 16l-9 19l-10 12l-8 7l-8 5l-5 3l-11 4l-30 5l-37 1l-27 1l-12 -1h-45l-13 1l-15 -1h-20
l-74 -1l-14 -4l-4 -10l1 -17l2 -15v-19l-2 -30l-2 -38v-22l4 -27l8 -4l5 -2l21 -1h37l31 -1l24 1l26 -2zM382 419l43 -1h16l20 2l34 5l18 7l19 15l10 13l9 15l3 21v25l-5 16l-5 13l-9 12l-22 13l-24 9h-17l-12 1l-51 -1l-39 1h-25l-19 2l-28 1l-32 -2l-18 -3l-8 -3l-4 -8
v-16l-1 -15l-4 -20l1 -24v-25l3 -18v-14l3 -9l4 -6l9 -3l8 -1l20 -1h22l21 -1l31 -1z" />
    <glyph glyph-name="C" unicode="C" horiz-adv-x="787" 
d="M433 -21l-19 -1l-23 1l-19 4l-47 8l-13 5l-32 11l-10 5l-11 6l-10 5l-6 5l-14 7l-12 9l-12 7l-11 11l-5 4l-11 10l-11 12l-14 15l-12 16l-7 8l-8 10l-7 11l-10 17l-9 18l-6 13l-7 17l-9 18l-3 13l-5 14l-1 13l-3 10l-1 17l-3 15l-1 23l-1 17v30l5 18l2 11l6 24l8 31
l10 23l6 16l6 12l9 15l3 8l2 3l8 11l14 18l15 19l14 16l13 13l20 16l25 17l20 14l30 16l17 7l15 5l16 5l13 3l28 7l16 3l9 1l20 1l21 2h22l22 -3l8 -2l20 -2l21 -6l29 -9l27 -10l7 -4l18 -10l23 -11l21 -16l19 -14l14 -11l16 -15l14 -17l12 -18l5 -13l-1 -16l-9 -16l-10 -13
l-16 -16l-13 -7l-17 -2l-15 3l-12 9l-16 16l-16 14l-12 14l-16 12l-11 8l-18 9l-17 9l-17 4l-25 7l-18 4h-22l-24 3l-26 -4l-18 -3l-19 -5l-19 -6l-21 -10l-25 -14l-13 -8l-10 -9l-15 -13l-12 -12l-11 -14l-16 -21l-15 -32l-13 -33l-3 -16l-2 -14l-2 -21v-23l4 -25l3 -26
l5 -17l3 -17l6 -17l6 -8l5 -11l4 -11l2 -4l8 -9l12 -18l10 -12l9 -9l14 -11l16 -14l12 -7l21 -11l20 -10l14 -4l19 -4l29 -5l18 -1l34 2l28 4l22 5l21 7l15 6l16 9l20 14l18 14l29 29l10 11l15 7l19 2l30 -11l25 -27l6 -16l-1 -12l-5 -17l-11 -18l-12 -12l-17 -18l-48 -33
l-17 -9l-8 -6l-55 -25l-13 -3l-15 -4l-13 -3l-14 -4l-29 -2l-21 -3z" />
    <glyph glyph-name="D" unicode="D" horiz-adv-x="815" 
d="M186 -3l-26 2l-23 5l-11 7l-5 6l-4 13l-3 18v32l1 12v11l1 12l-1 22l2 24l-2 31l-1 28l-1 24v131l1 31l-1 26l-1 19l-1 21l1 26l-1 29l1 22v33l2 30l-3 28v21l4 17l9 13l9 7l18 1l29 1l18 -1l11 1l25 -1h127l15 2h14l11 1l26 1l26 -2l14 1l6 -2l9 -1l14 -1l33 -5l15 -3
l21 -8l20 -8l12 -8l17 -11l14 -10l14 -11l22 -23l18 -20l10 -17l15 -24l9 -19l7 -13l6 -15l7 -20l5 -21l2 -8l3 -23l3 -31l2 -15l3 -11l1 -20l-1 -26l-1 -24l-4 -27l-5 -29l-7 -24l-9 -33l-8 -18l-9 -20l-6 -10l-7 -14l-16 -22l-17 -20l-15 -16l-14 -12l-15 -11l-22 -12
l-23 -11l-9 -4l-13 -5l-13 -4l-39 -10l-48 -2h-31l-32 -1l-26 1l-53 -3l-33 -1l-28 1l-19 -1zM433 110l25 4l24 5l19 3l25 10l20 11l27 19l20 22l18 25l11 27l7 27l5 24l1 18v66l-2 29l-3 22l-4 19l-7 24l-7 20l-8 14l-9 14l-18 22l-29 24l-23 13l-14 6l-37 10l-14 1l-25 1
h-78l-39 1l-30 -1l-13 -3l-18 -2l-16 -4l-7 -7l-2 -11l-1 -15l1 -19v-14l-1 -18l-1 -27v-64l1 -25v-67l-1 -28v-69l2 -20l1 -26l1 -17v-25l3 -13l15 -4l14 2l17 -1l20 -2h28l32 -1h70z" />
    <glyph glyph-name="E" unicode="E" horiz-adv-x="715" 
d="M505 -2l-7 1l-9 -1l-23 2l-20 -1l-13 1l-28 -1h-21l-19 1h-16l-14 -2l-16 1l-5 -1l-22 2h-30l-33 1l-36 -1h-32l-16 1l-16 9l-12 20l-2 24v71l-1 31l1 23v31l-1 19l-1 21l-1 10v14l1 15v24l-1 3l1 9l-1 12v9l-1 24l1 42l1 28v17l-1 29v65l-2 17l1 13v12l1 19v11l1 19
l1 27l4 13l7 11l11 7l8 4l11 2h29l42 -2h66l28 1l21 1l31 1h65l22 -3h22l16 2l28 -1l16 -1l40 2l11 -1l15 1l16 -2l15 -6l8 -12l6 -20l2 -21l-1 -13l-6 -18l-11 -14l-11 -4l-23 -2l-36 -1l-21 -1l-9 1l-32 -2h-47l-38 1l-23 1h-10l-20 -2l-53 -1h-18l-22 -1h-19l-18 -5
l-3 -16l-1 -17l-2 -7v-17l-1 -23l2 -25l-1 -26l5 -23l12 -7h8l22 -3l26 2h17l21 -2l22 2l76 1h55l15 -1l17 -5l12 -12l4 -11l2 -10l1 -8l2 -23l-3 -21l-7 -12l-20 -10h-53l-58 -3l-32 1h-11l-41 1l-12 -1l-18 1l-24 -1l-12 -2l-13 -4l-7 -6l-1 -14l-1 -15l-2 -17v-22l1 -15
v-19l-1 -16v-27l9 -26l28 -12h70l28 1l28 -1l57 1l21 2h60l12 -2h19l31 -1l25 -2h13l8 -2l9 -6l6 -9l3 -18l-1 -21v-12l-2 -11l-4 -12l-6 -8l-7 -4l-10 -3l-50 -5l-26 -3h-28z" />
    <glyph glyph-name="F" unicode="F" horiz-adv-x="703" 
d="M141 -2l-18 7l-6 8l-5 13l1 23l-1 34l1 31v87l-2 21l1 19l-1 14l1 25v54l2 39l-3 27l2 28l-1 31l1 35v33l-1 20l2 14l-1 15v55l-1 16l1 12l3 13l5 12l12 11l13 4h25l42 -1l13 1l23 -1l25 1l21 2l22 -1h18l14 2l23 -1l22 1h17l57 2h15l6 1l62 -2h20l32 -2l15 -3l12 -6
l8 -7l6 -10l4 -20v-24l-2 -19l-6 -13l-11 -6l-20 -3h-83l-25 1h-25l-63 -1l-22 -2h-30l-11 -1h-74l-31 -2l-13 -5l-3 -24l1 -29l-1 -12v-46l1 -19l4 -20l6 -10l6 -4l21 -2l26 -1l15 1l52 -2l17 1h15l12 2h85l21 -3l8 -3l9 -7l11 -16l5 -21v-20l-8 -27l-12 -11l-23 -6h-26
l-19 -1l-80 -2l-28 -1l-17 1l-14 -1l-13 1l-17 -2l-20 -1l-16 -3l-11 -5l-8 -13l-2 -11v-35l2 -19v-19l1 -11l1 -24l1 -33l-2 -31v-50l-2 -11l-4 -13l-11 -10l-12 -6l-22 -3l-20 -1z" />
    <glyph glyph-name="G" unicode="G" horiz-adv-x="842" 
d="M399 -20l-18 2l-19 6l-21 4l-10 3l-16 5l-28 8l-19 8l-36 20l-20 16l-14 9l-11 10l-19 16l-17 18l-12 17l-16 20l-15 23l-12 27l-8 22l-6 12l-4 13l-5 20l-3 16l-2 11l-3 17l-2 19l-2 9l1 12l-2 21l2 16v8l1 17l4 16l2 15l4 14l2 11l4 13l5 9l3 9l2 7l8 15l9 16l6 9
l10 19l16 19l14 20l23 22l23 19l10 9l16 10l20 13l11 6l12 8l11 6l11 4l17 5l25 8l24 8l21 3l13 3h23l20 1l23 -3l25 -2l7 -2l15 -2l20 -5l15 -3l10 -3l25 -9l15 -8l11 -5l9 -6l30 -14l19 -15l16 -11l11 -10l7 -6l12 -15l15 -19l7 -14l3 -15l-6 -20l-10 -15l-14 -11l-21 -11
l-22 -1l-14 5l-15 13l-20 19l-23 19l-25 16l-23 13l-18 7l-16 5l-56 10l-19 2l-5 -1l-22 -2l-34 -6l-22 -5l-15 -7l-22 -11l-21 -13l-12 -10l-9 -9l-8 -7l-28 -32l-5 -9l-7 -10l-11 -24l-8 -20l-5 -16l-7 -22l-4 -29v-34l3 -17l2 -24l2 -17l4 -16l6 -14l6 -12l7 -10l6 -11
l9 -9l7 -9l9 -14l8 -10l15 -13l29 -24l33 -19l28 -11l27 -7l18 -4l23 -2l39 3l20 3l26 7l19 6l34 16l21 14l15 14l19 21l9 13l10 15l10 18l10 20l4 16l2 13l-1 10l-13 8h-41l-28 -1l-10 2h-37l-30 -1l-12 -1l-14 -1l-9 2h-15l-21 2l-16 6l-8 12l-4 16l-3 27v20l4 11l8 12
l10 6l10 3h41l38 3h30l13 1h22l71 -1h19l40 -2l35 -3l10 -3l11 -6l15 -16l10 -31v-42l-4 -36l-4 -19l-3 -9l-2 -14l-9 -23l-7 -22l-6 -10l-6 -14l-9 -16l-6 -10l-8 -13l-12 -15l-10 -10l-16 -19l-21 -20l-10 -8l-11 -8l-10 -5l-6 -5l-19 -12l-8 -3l-20 -10l-20 -7l-15 -3
l-14 -5l-8 -2l-9 -1l-15 -4h-17l-9 -3l-19 -1h-19l-12 -2z" />
    <glyph glyph-name="H" unicode="H" horiz-adv-x="816" 
d="M146 1l-21 9l-7 11l-4 14l-1 20l1 16l-1 21v27l-1 15l1 16l-1 29v17l3 36v44l-1 15l-1 10v23l1 24v28l-1 16v27l-1 25v72l-1 36v20l1 22l-1 24v27l2 30l7 12l5 5l15 10l25 3h18l14 -3l11 -3l7 -6l6 -9l3 -8l2 -12l2 -16v-28l1 -31v-21l-1 -19v-45l1 -18l1 -19v-12l-1 -10
l2 -12l2 -6l8 -4l18 -1l29 -1h18l36 -1l25 1h79l29 1l20 -1l29 1l25 -1l17 2l10 3l4 8l4 13l2 17v46l-1 29l1 15v99l3 18l3 10l5 8l13 11l19 4l17 -1h20l17 -5l14 -12l5 -21l2 -14l2 -19l-2 -21v-26l1 -30l1 -34l-1 -29l-1 -31v-20l1 -27l-2 -16l1 -19l-1 -27l1 -34l2 -32
l-2 -27l1 -24v-15l-1 -13l-1 -22l2 -19l1 -13v-15l-1 -14l1 -17l-2 -15l1 -11v-14l-2 -22l-4 -22l-12 -16l-15 -6l-27 -3l-28 2l-10 4l-13 10l-6 15l-2 14l1 35v186l-1 26l-8 12l-16 2l-50 2l-26 -1l-38 3l-39 -1l-35 1l-24 -2h-18l-30 -1h-27l-17 -1l-7 -2l-16 -14l-4 -24
v-89l-1 -14l-1 -16l2 -18l1 -27v-21l1 -15l-1 -19l-2 -18l-7 -10l-9 -7l-19 -8l-18 -4h-12z" />
    <glyph glyph-name="I" unicode="I" horiz-adv-x="346" 
d="M153 1l-19 5l-14 14l-4 14l1 23v40l1 24l-2 16l1 23l-2 25l1 13l1 11l-3 17v31l2 24l-2 20l3 18l-1 12v18l-3 18l1 12v16l-3 28l-1 17l3 30v29l1 27l-1 20v96l-1 20l4 16l5 9l6 6l13 9l19 2h18l21 -1l16 -5l8 -9l8 -13l1 -18l1 -25v-17l-1 -11l2 -17l-1 -25v-24l2 -17
l-1 -25l-1 -31v-20l1 -14v-25l1 -22l-1 -27l1 -47l-2 -28v-13l1 -9v-56l1 -16v-52l2 -11v-47l-1 -23l-5 -28l-5 -11l-5 -6l-7 -3l-18 -7h-21l-8 -1z" />
    <glyph glyph-name="J" unicode="J" horiz-adv-x="719" 
d="M316 -19l-7 2l-16 1l-34 7l-31 9l-13 7l-19 8l-19 10l-17 14l-18 16l-10 16l-11 16l-11 19l-11 29l-6 19l-3 19l-4 20l-2 13l-2 16l-1 12v17l-1 26l4 19l6 13l12 12l17 6l16 2l29 -2l13 -4l13 -11l7 -17l1 -21l-1 -31l1 -25l1 -7l3 -12l5 -13l4 -16l19 -27l21 -18l17 -9
l23 -8l28 -5l19 -2l11 1l12 -2l21 3l29 7l17 6l14 8l21 18l16 28l5 22l1 10l3 17l1 21v12l1 11l-1 10l1 13l1 14v24l-1 24l1 17l-1 8v45l-1 6v30l1 4v25l-2 31v53l-1 19v19l1 31l1 36l11 22l15 9l28 4l33 -2l18 -9l6 -9l3 -10l2 -24l1 -21l1 -7v-13l1 -19l-1 -13l1 -14v-60
l1 -21l-1 -19v-26l-2 -30l1 -15l-1 -21v-38l-1 -36v-18l1 -31v-16l-1 -15l-2 -21l-1 -19l-4 -22l-6 -13l-2 -10l-4 -14l-7 -18l-8 -15l-8 -13l-10 -12l-12 -16l-21 -15l-16 -11l-11 -7l-19 -9l-20 -7l-12 -3l-21 -6l-15 -3l-35 -5l-10 -1h-22z" />
    <glyph glyph-name="K" unicode="K" horiz-adv-x="786" 
d="M626 -5l-11 7l-32 38l-9 10l-7 12l-11 14l-10 17l-20 22l-14 21l-8 8l-15 20l-14 17l-5 9l-14 19l-19 27l-17 19l-8 10l-8 9l-8 11l-11 12l-10 16l-14 5l-14 -11l-9 -9l-10 -12l-11 -9l-12 -13l-12 -12l-13 -14l-22 -20l-21 -22l-6 -29l1 -22l1 -21l-2 -26l1 -22l-1 -9
v-12l-1 -19l-2 -13l-11 -13l-21 -11l-28 -2l-20 1l-12 5l-13 8l-3 8l-2 8l-4 23l1 9v20l-2 31v115l1 17l-1 29v129l1 27v44l-2 21l1 11l-2 15l-1 24v27l1 25l-1 20l1 24v18l1 11l2 9l5 12l11 9l16 4l10 1l11 -1h22l16 -2l9 -5l11 -13l4 -13l1 -26l1 -23v-57l-1 -38l1 -30
l-1 -22l1 -26l-2 -21l1 -26l1 -19v-14l17 2l20 22l13 12l16 17l23 22l24 24l16 18l18 17l14 14l38 35l22 21l11 11l17 15l15 18l19 19l16 15l11 10l11 13l17 17l16 14l6 3l13 4l25 -5l15 -11l9 -8l10 -8l5 -7l6 -11l-1 -19l-8 -18l-8 -10l-8 -9l-11 -11l-16 -17l-56 -56
l-29 -31l-10 -11l-15 -13l-17 -18l-16 -16l-9 -13l-3 -13l7 -15l6 -9l11 -15l12 -19l9 -11l9 -12l8 -9l8 -12l8 -11l9 -12l9 -11l12 -13l14 -19l10 -16l7 -10l8 -9l7 -11l11 -15l11 -14l4 -7l9 -11l14 -19l19 -24l16 -24l6 -21l-5 -15l-7 -9l-17 -15l-21 -15l-19 -7z" />
    <glyph glyph-name="L" unicode="L" horiz-adv-x="670" 
d="M138 3l-13 7l-7 14l-5 18l-1 21l1 22l-1 20l2 15l-1 26v91l-2 11l-1 22v62l1 28v19l2 22l1 22l2 26l-2 26l2 21v46l-2 14v29l-1 25v55l4 16l3 7l5 7l7 4l12 3l13 1l13 -2h19l16 1l11 -4l6 -6l5 -9l2 -7l1 -16l1 -20v-15l2 -22v-16l-2 -20l-1 -17v-63l1 -22l2 -19l1 -18
l1 -30l1 -22l-1 -7l1 -11l1 -19l-1 -19v-9l-1 -9l1 -7l-2 -20v-18l-1 -34l-3 -22v-23l1 -17l3 -24v-8l1 -9l6 -8l5 -2h44l22 -1l9 1l10 -1l16 -1l20 -1h21l16 3l19 1h18l15 -1h20l12 -2h18l24 3h24l15 -1h14l13 -3l11 -7l11 -13l2 -7v-45l-2 -10l-3 -7l-8 -7l-17 -9l-14 -2
l-17 1h-52l-17 -3l-13 1h-57l-15 1l-59 -2h-193z" />
    <glyph glyph-name="M" unicode="M" horiz-adv-x="954" 
d="M141 0l-20 10l-9 19l-1 22l-2 11v20l2 18l-1 20l-1 22l1 19l-2 26v27l1 14l-2 27l1 34v16l-2 28v38l1 13l1 28v39l-1 40v60l1 13v51l-1 23l-2 20v17l2 8l7 11l8 6l19 3l20 2h7l15 1l18 -3l8 -5l7 -7l7 -15l11 -17l12 -22l11 -24l18 -31l13 -24l12 -26l19 -38l12 -20
l11 -25l11 -19l5 -10l5 -9l6 -12l10 -24l14 -25l10 -20l6 -13l5 -10l7 -12l11 -21l11 -23l10 -15l9 -17l5 -13l6 -3l5 3l7 10l7 11l7 13l12 25l11 22l6 13l8 12l6 7l3 8l3 9l10 15l7 15l6 9l9 17l10 21l9 19l9 20l9 18l10 15l11 24l13 24l12 27l15 30l9 19l3 11l8 14l4 12
l10 20l15 24l12 8l12 4l45 4l18 -2l16 -6l6 -9l2 -7l2 -16v-101l-1 -21l1 -23v-90l1 -25v-14l-1 -21l3 -30l-1 -24l2 -31v-76l-1 -25v-16l-1 -13l1 -22l1 -20l-1 -26l1 -30l-2 -22l-5 -18l-6 -7l-10 -6l-8 -3l-12 -3l-17 1h-13l-10 2l-10 3l-12 6l-13 28l-3 31l1 21v33
l-1 42v83l-3 33l2 22v16l1 22v19l-1 11v26l-1 3l-3 2l-2 -2l-5 -7l-3 -9l-7 -12l-5 -10l-6 -10l-7 -14l-9 -20l-10 -22l-11 -16l-10 -17l-9 -18l-7 -15l-11 -20l-15 -28l-7 -17l-7 -19l-13 -24l-5 -12l-5 -7l-4 -9l-5 -8l-4 -8l-11 -21l-9 -19l-2 -6l-9 -13l-18 -13l-13 -2
l-12 -1l-14 -1l-14 1l-11 5l-11 15l-12 25l-8 15l-8 18l-11 24l-10 18l-6 14l-4 9l-5 10l-21 35l-5 7l-10 22l-10 21l-5 10l-11 17l-12 28l-10 20l-7 16l-12 20l-12 26l-12 22l-7 8l-3 -3v-15l-1 -23v-17l1 -8v-13l-1 -15l2 -29v-20l-1 -38l-1 -16v-43l1 -24l-1 -17l2 -18
v-14l2 -22v-18l-3 -28l-3 -11l-10 -13l-33 -9h-22z" />
    <glyph glyph-name="N" unicode="N" horiz-adv-x="814" 
d="M147 0l-21 14l-8 15l-3 16l1 18l2 19l-1 19v13l-1 18v19l2 14l-1 26l-2 19l-3 19v30l1 17l-1 17l1 18v11l2 28v30l-2 15v9l2 16l-2 18v7l2 18l-1 25l1 22l-2 17l1 10l-1 13l-1 20l-1 18v27l1 19l1 12v10l2 16l2 13l5 4l18 10l15 1l19 1l22 -2l21 -4l13 -9l16 -20l10 -15
l17 -24l14 -22l13 -16l13 -20l14 -18l6 -8l10 -18l11 -14l17 -19l13 -18l11 -12l20 -24l24 -32l15 -24l24 -32l10 -11l8 -12l13 -19l18 -21l18 -28l10 -12l7 -9l10 -8h11l3 5l2 22l1 21v100l2 28v18l-1 19v18l2 14v67l-2 10l1 16l-1 20v16l-1 15v28l1 19l5 18l8 6l11 6l9 2
l13 1l11 3h29l12 -6l9 -10l7 -16l2 -26l-2 -23l-1 -11l2 -19l-1 -15l1 -14l-1 -15l1 -10v-39l1 -29v-52l3 -15v-9l-2 -13l2 -21l-1 -11l1 -9l-3 -11v-118l-1 -28l1 -15v-113l3 -17l-2 -24l-11 -10l-8 -4l-10 -1l-22 2l-32 -1l-21 4l-13 9l-14 18l-17 23l-40 57l-19 25
l-10 14l-22 33l-24 34l-18 23l-15 17l-10 15l-9 9l-21 30l-13 16l-9 9l-7 13l-12 13l-23 31l-19 28l-12 16l-13 14l-8 11l-6 6l-10 4l-9 -5l-1 -19l1 -23v-20l-1 -21l2 -31v-41l1 -41l1 -25l3 -19l-1 -31v-42l-2 -28v-15l-1 -21l1 -16l-1 -13v-18l-2 -16l-7 -13l-10 -7
l-9 -3l-16 -3h-13l-7 -2z" />
    <glyph glyph-name="O" unicode="O" horiz-adv-x="856" 
d="M435 -14h-17l-15 1l-20 3h-25l-18 4l-10 3l-13 3l-18 7l-24 9l-20 11l-10 5l-11 7l-13 7l-9 7l-10 6l-14 13l-17 15l-11 11l-36 43l-14 27l-12 22l-13 23l-6 22l-5 13l-5 24l-4 20l-1 12l-3 17l-1 14l1 17v29l3 19l2 18l8 25l3 16l8 23l10 26l9 14l10 22l19 30l17 23
l10 9l7 9l10 11l10 10l8 4l11 11l27 15l24 12l28 13l21 6l13 6l27 9l25 4l16 3l24 -1l35 1l24 -2h11l18 -3l20 -5l13 -3l9 -4l15 -5l14 -5l14 -7l16 -9l21 -11l28 -18l21 -17l21 -20l25 -30l16 -19l7 -10l6 -12l7 -10l9 -18l10 -23l6 -20l5 -16l2 -9l4 -13l5 -25l2 -16v-14
l1 -16l-2 -17l-2 -26l-2 -16l-1 -16l-3 -20l-3 -12l-4 -17l-9 -24l-8 -22l-9 -19l-7 -12l-5 -10l-8 -10l-7 -9l-6 -9l-4 -7l-6 -7l-11 -11l-13 -10l-9 -9l-7 -6l-9 -7l-8 -7l-10 -6l-7 -6l-12 -8l-20 -11l-22 -13l-17 -7l-11 -4l-21 -7l-25 -7l-21 -3h-29zM469 102l13 1l6 1
l5 3l4 2l13 2l13 6l12 4l19 10l20 13l26 19l15 16l5 6l8 12l15 19l20 30l6 22l4 19l3 22l2 27l2 14l-2 26l-7 36l-7 23l-10 21l-5 17l-6 11l-8 16l-12 15l-7 9l-11 11l-34 27l-32 19l-19 8l-21 6l-8 2l-13 4l-17 4h-55l-15 -3l-18 -2l-23 -7l-33 -14l-56 -32l-10 -11l-8 -10
l-6 -5l-12 -17l-9 -17l-5 -7l-4 -11l-7 -13l-6 -16l-5 -16l-2 -14l-5 -22l-2 -25l1 -12l1 -14l2 -16v-15l1 -5l3 -11l4 -18l3 -15l12 -22l24 -36l19 -24l7 -8l16 -14l20 -13l7 -4l4 -2l18 -10l21 -10l17 -5l28 -5l28 -4l24 -1z" />
    <glyph glyph-name="P" unicode="P" horiz-adv-x="754" 
d="M145 -1l-14 4l-8 7l-7 9l-2 14l-1 14l-2 22v10l3 22l2 25v12l1 18l-1 19l1 17v26l-1 15l-1 18l1 15l1 7l-3 9l-2 8l4 3l5 2l-1 5h-2l-5 -1l-2 5l1 3l2 4l-2 7v10l-1 5l2 9l1 13l-2 7l2 9v19l2 14l2 7v11l-1 18l-1 17l-1 18v23l-2 38v19l-2 12v49l-1 21v12l2 22l6 15l4 4
l7 6l9 1l11 3h15l9 2l11 -1l52 -2l6 -1l13 1l18 -1h18l15 1h33l7 2h15l19 -1h9l9 2l10 1l11 -1l10 -2l9 3l7 -1h4l5 2l9 -2l22 -1l18 1l11 -1l14 -2l16 -4l14 -3l21 -8l17 -8l18 -9l19 -16l14 -15l7 -9l8 -13l7 -14l5 -13l4 -11l1 -8l5 -13l4 -18l2 -14l3 -14v-33l-1 -22
l-5 -21l-2 -19l-8 -15l-2 -8l-5 -10l-4 -9l-10 -11l-11 -14l-5 -7l-9 -9l-10 -13l-7 -8l-8 -4l-6 -4l-8 -4l-10 -4l-18 -4l-7 -4l-11 -5l-9 -2l-11 -1l-13 -2h-44l-10 -1h-20l-17 1l-17 -2l-23 1l-29 -3l-65 -1h-25l-23 -3l-7 -17l-6 -21v-58l-1 -10l1 -13l-1 -22l1 -28v-35
l-3 -12v-17l-1 -9l-5 -10l-12 -11l-14 -3l-9 -3l-16 -1zM370 388l26 1l7 1l6 -1l8 1l15 1l23 -1l52 2l21 6l15 8l17 18l14 25l4 17l1 13v20l-4 22l-5 22l-8 15l-7 7l-12 8l-29 13l-29 3l-15 1l-19 -1l-13 -1l-14 1l-11 -1h-56l-12 1l-6 1h-6l-13 -1l-17 1l-25 -2l-23 2l-6 1
l-7 -3l-5 -11l-4 -15l-3 -20v-20l-1 -13l-2 -14v-74l2 -18l3 -6l5 -4l13 -3l16 -2l17 -1h50l16 -1z" />
    <glyph glyph-name="Q" unicode="Q" horiz-adv-x="856" 
d="M638 -105l-16 14l-12 20l-15 18l-7 11l-8 13l-9 12l-4 6l-8 5l-21 2l-29 -5l-14 -4l-14 -2l-19 -3l-14 -1l-24 -2h-28l-17 5l-10 2l-11 2l-17 5l-14 3l-8 3l-13 3l-20 6l-16 9l-13 6l-10 6l-11 5l-11 7l-12 7l-11 8l-9 5l-14 16l-24 25l-9 13l-10 16l-12 15l-13 26l-6 11
l-7 10l-4 10l-5 12l-6 16l-5 19l-5 20l-4 20l-4 19l-2 23l-1 18v10l-1 16l3 16v8l3 12l2 14l6 21l8 22l6 12l4 10l6 13l9 19l11 19l10 18l7 7l8 16l12 14l6 4l7 9l8 7l6 6l8 7l14 12l3 4l26 15l21 14l32 16l20 8l13 5l7 2l9 2l22 6l37 3l26 1h30l22 -2l30 -5l25 -7l34 -12
l18 -5l18 -7l30 -17l13 -10l20 -17l17 -15l10 -8l18 -20l6 -9l13 -16l10 -13l8 -9l8 -17l16 -31l10 -36l6 -22l2 -12l5 -17l3 -21l3 -19v-29l-3 -13v-15l2 -8l-1 -11l-2 -16l-6 -20l-4 -16l-1 -13l-9 -18l-6 -16l-7 -11l-5 -13l-5 -8l-3 -7l-8 -13l-12 -16l-10 -14l-13 -14
l-15 -18l-8 -13l-4 -10l-1 -6l6 -14l12 -18l14 -23l14 -24l6 -15l1 -12l-1 -12l-10 -15l-10 -9l-16 -11l-20 -10h-13zM446 98h13l11 4l11 7l1 5l-3 12l-11 23l-10 18l-8 13l-4 14l-1 19l10 16l17 12l18 12l17 6l16 3l12 -6l9 -9l8 -11l12 -22l13 -16l14 -20l8 -5l11 4l9 10
l13 15l10 16l8 15l9 16l6 16l8 21l3 18l2 7v58l-1 9l-3 20l-4 19l-2 15l-6 10l-1 7l-2 6l-5 11l-9 14l-9 19l-10 13l-9 11l-15 14l-15 12l-14 10l-10 7l-10 6l-11 5l-18 7l-13 6l-6 1l-22 7l-33 4l-22 2l-18 1l-17 -3l-18 -2l-15 -7l-20 -5l-15 -5l-12 -6l-10 -6l-17 -14
l-15 -14l-13 -11l-12 -14l-20 -26l-20 -35l-8 -17l-5 -24l-6 -25l-4 -28l-2 -24v-16l5 -21l9 -42l15 -32l9 -18l38 -47l13 -13l16 -13l15 -9l16 -7l15 -6l13 -5l17 -6l19 -4l21 -4l24 -1z" />
    <glyph glyph-name="R" unicode="R" horiz-adv-x="776" 
d="M615 -9l-10 6l-8 7l-11 12l-12 17l-8 10l-8 11l-8 12l-9 13l-6 10l-8 10l-11 16l-16 18l-11 14l-9 13l-13 16l-15 18l-12 17l-16 19l-10 14l-6 8l-7 5l-10 7l-10 5l-11 2l-13 2l-9 -1l-62 2l-24 -2l-20 -7l-5 -16l-2 -27l-2 -23l-1 -12l-1 -26v-20l1 -28l-1 -8v-19
l-1 -17v-21l-2 -14l-2 -16l-5 -10l-5 -6l-6 -3l-10 -3h-12l-18 -2l-22 2l-11 2l-10 4l-9 16l-5 14v24l-1 24l-1 10l3 39v24l-1 20l-2 16v68l1 19l1 12l-1 8v46l1 19v39l-1 21v14l2 10l-2 12v20l-1 7l1 6l1 10v18l-1 4l2 15v48l-2 10l2 10l-3 19v18l1 20l4 17l6 9l6 5l11 6
l29 4l44 -2l35 1l23 1h16l11 -1l17 1l23 1l51 -1h13l19 1h46l23 -1l54 -5l12 -3l18 -6l23 -10l25 -15l14 -14l8 -9l15 -16l9 -17l5 -16l7 -17l5 -14l4 -8l2 -9l2 -8l-1 -12l1 -13l1 -24l1 -31l-1 -15l-2 -8l-3 -11l-4 -11l-7 -20l-10 -23l-6 -9l-6 -10l-11 -12l-10 -9
l-10 -11l-17 -11l-12 -6l-17 -12l-21 -9l-6 -6l1 -5l1 -4l6 -10l11 -18l14 -17l10 -12l5 -9l8 -9l30 -43l11 -14l12 -16l10 -12l8 -13l11 -14l7 -18l-2 -7l-4 -13l-12 -20l-14 -9l-17 -12l-22 -9zM480 386l9 1l11 1l8 1l10 -1l9 4l7 3l9 3l6 5l7 7l6 8l8 21l4 21l2 9l1 15
l2 12l-2 15l-5 18l-5 16l-12 19l-17 11l-14 4l-19 6l-19 1l-15 1l-9 1h-9l-11 1l-12 -2h-67l-14 1h-16l-18 -1l-15 3h-31l-24 -3l-6 -2l-3 -7l-1 -13l-1 -26v-32l-1 -23l1 -32l-1 -30l3 -18l15 -9l13 -3l13 -1l18 2l11 -2l22 -1h21l6 -1l22 1h27l42 -4h34z" />
    <glyph glyph-name="S" unicode="S" horiz-adv-x="761" 
d="M353 -14l-13 2l-17 3l-27 4l-30 10l-20 7l-38 16l-27 15l-12 9l-17 12l-28 25l-22 19l-12 19l-9 17v20l9 17l11 14l17 9l10 3l10 4h13l13 -3l10 -6l24 -22l4 -7l4 -4l29 -23l12 -9l11 -5l20 -11l22 -8l16 -8l14 -4l10 -2h8l8 1l9 -2l6 1l15 -1l24 -1l15 4h15l12 2l13 1
l11 3l8 4l13 4l17 10l22 18l14 17l3 8l6 15l2 19l-3 25l-17 27l-20 12l-11 5l-15 5l-14 4l-15 2l-15 4l-14 2l-13 3l-14 1l-21 4l-21 2l-11 3l-21 2l-40 7l-14 3l-12 4l-20 5l-20 7l-14 6l-16 6l-22 11l-16 10l-4 2l-11 9l-13 12l-7 6l-6 8l-8 12l-5 9l-10 16l-10 39v29
l2 17l3 23l4 15l4 10l5 10l4 9l7 11l11 15l31 31l10 5l14 10l17 8l13 10l11 6l9 4l9 1l10 6l36 10l19 3l23 3l11 2l13 1l22 2l20 -1h9l7 -1l35 -3l6 -2h8l10 -2l9 -2l12 -2l26 -10l10 -6l9 -4l13 -8l25 -11l14 -13l22 -17l19 -20l17 -24l9 -17l-2 -30l-2 -6l-4 -7l-8 -7
l-18 -11l-19 -7l-16 1l-16 7l-10 7l-11 11l-17 18l-14 12l-9 7l-17 9l-11 9l-23 10l-16 4l-27 3l-18 1l-27 -1l-24 -2l-20 -1l-30 -6l-29 -13l-12 -7l-16 -11l-20 -18l-6 -15l-4 -12l-1 -18l4 -18l6 -16l5 -7l8 -6l14 -11l21 -8l31 -9l19 -4l12 -3l11 -1l13 -2l9 -2l11 -5h7
l10 -1h20l12 -3l17 -3l20 -5l10 -3l10 -1l4 -3l26 -3l46 -12l22 -10l21 -9l17 -13l6 -6l14 -10l15 -17l6 -12l6 -11l4 -7l2 -8l6 -16l2 -14l1 -4l2 -2l1 -14v-37l-4 -23l-4 -16l-5 -14l-5 -10l-2 -7l-7 -12l-9 -13l-8 -9l-7 -9l-5 -5l-7 -9l-9 -9l-12 -8l-17 -11l-10 -6
l-7 -4l-10 -5l-10 -4l-7 -3l-14 -4l-20 -7l-26 -6l-24 -2l-15 -2l-20 -1h-39z" />
    <glyph glyph-name="T" unicode="T" horiz-adv-x="667" 
d="M325 -6h-17l-10 2l-14 8l-5 6l-6 6l-4 19v21l1 15v15l2 19l-1 25l1 19v21l1 17l-1 39v70l-2 24v8l1 11v26l-1 27l-1 17v27l1 32v21l1 8l-2 10l1 16v13l-1 8v11l-2 17l-5 12l-4 3l-21 1l-24 -2l-8 -1l-13 1h-18l-64 2l-21 -1l-14 3l-9 7l-8 9l-6 14l-2 24l3 27l9 17l12 8
l12 4l14 1l16 3h12l8 -1h50l5 -1h58l13 -1h23l22 -1h27l24 1l19 1l20 -1l24 1l26 -1l96 -2l24 -2l20 -3l22 -17l7 -24v-13l1 -9l-3 -14l-3 -8l-4 -6l-7 -8l-19 -6l-31 -4l-34 1l-26 -2l-72 2l-16 -4l-6 -9l-1 -21v-23l1 -19l-1 -20l-1 -17l-1 -21l-1 -24v-10l1 -12l1 -11
l-1 -7l1 -13v-22l-2 -10l2 -8l-1 -11l1 -11l-2 -11l-1 -15v-14l-1 -16v-14l-2 -10l2 -6l-2 -15l1 -27v-15l1 -9l-2 -11l1 -9l-1 -9v-25l1 -16l-2 -13v-9l3 -7l2 -10l1 -11l-2 -12l-4 -12l-6 -11l-7 -3l-18 -8l-11 -4z" />
    <glyph glyph-name="U" unicode="U" horiz-adv-x="787" 
d="M338 -16l-12 3l-13 2l-30 7l-22 8l-15 7l-10 3l-15 10l-14 7l-11 9l-13 11l-7 10l-12 12l-13 16l-7 13l-5 10l-3 9l-4 15l-7 21l-5 19l-1 11l-3 8l1 16v34l-2 15v6l-1 11l-1 18l2 18l1 19v18l-2 16l3 7l-1 10v27l-1 11v9l-2 13v42l1 13v9l-1 14l-1 13v71l-1 14l2 14
l-1 18l1 18l2 15l4 8l10 7l19 6h16l11 2l10 -2l14 -4l12 -4l10 -8l3 -11l-1 -11l2 -10l1 -17v-16l-2 -5l1 -10v-27l2 -13v-17l1 -8l1 -11l-2 -10v-11l-1 -10l1 -27v-26l1 -6l1 -8l-1 -6v-11l-1 -11l2 -9l-1 -18l-1 -19l1 -7v-12l-1 -8l2 -10l-1 -16l-1 -17v-23l2 -30l1 -23
l5 -19l5 -24l15 -23l11 -14l8 -6l15 -10l18 -9l13 -5l15 -5l13 -3l13 -2l17 -1h8l25 -1l42 3l17 5l21 7l19 7l9 8l12 11l8 10l4 3l6 11l5 13l2 9l2 10l2 12l2 13v20l2 14l-1 5l2 7l-1 11l1 25v24l2 20v24l-2 14v12l-1 19v39l-1 12v31l-1 10l-1 21v17l2 28v23l-1 16v16l-1 23
l2 21l4 19l8 9l9 4l14 3l17 2h14l14 -3l16 -6l15 -13l5 -21l2 -16v-18l1 -16l-1 -26v-59l-1 -27l-2 -16l-1 -17v-16l1 -14l-1 -20l1 -26v-73l-1 -18v-24l1 -22l-1 -24l-1 -15l-3 -25l-3 -20l-3 -11l-7 -24l-7 -19l-9 -17l-11 -17l-15 -25l-17 -19l-4 -3l-8 -5l-10 -5l-8 -5
l-16 -7l-21 -10l-19 -6l-18 -3l-12 -4l-58 -9h-76z" />
    <glyph glyph-name="V" unicode="V" horiz-adv-x="736" 
d="M357 -1l-21 3l-7 3l-7 7l-8 10l-1 10l-8 18l-2 9l-4 7l-13 24l-10 24l-5 11l-9 16l-8 20l-10 22l-7 22l-12 25l-6 16l-8 13l-6 18l-4 11l-3 9l-7 16l-19 38l-3 9l-6 15l-5 12l-6 16l-2 7l-8 17l-13 28l-8 19l-4 9l-1 7l-5 11l-5 13l-6 18l-5 9l-1 6l-6 9l-9 23l-10 27
l-7 24l-6 14l-3 10l-2 12v12l4 9l3 4l14 7l22 9l24 5l14 -1l14 -7l10 -12l5 -10l6 -13l10 -24l16 -37l21 -45l7 -22l7 -19l4 -8l8 -21l7 -22l5 -7l4 -10l8 -18l9 -21l9 -19l5 -14l4 -10l5 -13l10 -18l11 -24l7 -16l6 -9l7 -16l9 -20l7 -17l8 -10l6 -6l6 2l6 8l5 11l6 9l6 16
l8 23l7 12l3 10l7 16l5 13l2 6l6 9l7 14l5 13l4 12l4 9l3 13l10 20l7 16l5 14l7 11l6 13l5 11l6 13l5 13l3 8l5 13l8 14l7 16l9 21l10 21l6 14l4 8l3 9l7 13l9 19l11 15l16 9l9 2l17 -5l16 -6l17 -8l6 -1l13 -14l2 -17l-1 -6l-4 -17l-9 -20l-5 -13l-14 -35l-9 -23l-8 -16
l-14 -30l-6 -14l-5 -14l-5 -11l-4 -7l-3 -9l-10 -23l-9 -20l-3 -7l-4 -13l-6 -11l-4 -8l-4 -9l-2 -7l-5 -11l-8 -22l-9 -18l-5 -13l-3 -9l-3 -6l-3 -8l-5 -13l-7 -15l-12 -20l-10 -29l-6 -17l-2 -9l-6 -10l-3 -10l-5 -11l-6 -14l-7 -17l-3 -12l-4 -10l-9 -19l-10 -23l-7 -11
l-3 -6l-8 -10l-8 -6l-15 -3z" />
    <glyph glyph-name="W" unicode="W" horiz-adv-x="1014" 
d="M330 1l-10 6l-6 7l-5 11l-6 12l-8 19l-8 21l-8 19l-8 21l-9 22l-7 16l-8 21l-6 15l-9 23l-10 23l-12 31l-10 20l-10 19l-8 17l-9 23l-4 12l-8 17l-9 23l-6 19l-7 18l-4 14l-7 11l-8 17l-6 14l-4 7l-7 22l-15 35l-12 32l-8 24l-12 30l-5 27l1 7l5 7l10 11l13 7l14 5l20 6
l27 -2l20 -18l12 -26l12 -24l6 -16l2 -10l3 -5l2 -8l7 -13l5 -15l8 -21l9 -22l5 -16l4 -9l4 -7l8 -16l8 -12l2 -6l3 -8l4 -9l4 -10l7 -19l5 -11l4 -15l8 -24l1 -6l5 -7l16 -33l4 -9l3 -13l7 -13l6 -14l5 -12l4 -9l4 -8l6 -10l8 -7l8 2l5 6l5 11l9 17l6 17l8 21l8 13l2 5l4 5
l2 11l3 8l11 33l2 13l2 10l-4 20l-4 21l-4 10l-6 11l-8 21l-7 15l-2 8l-6 12l-7 17l-10 20l-6 17l-7 15l-5 15l-8 18l-5 16l-4 10l-4 20l4 14l10 8l10 5l15 6l14 7l12 4l18 1l19 -8l15 -26l11 -22l10 -26l12 -30l7 -19l7 -12l5 -3l5 5l2 7l1 5l6 12l7 18l6 11l4 10l4 8l5 9
l2 8l7 11l9 21l8 13l8 5l8 1l10 1l36 -16l19 -7l9 -5l8 -10l1 -15l-1 -12l-5 -13l-10 -24l-11 -24l-6 -19l-7 -20l-4 -9l-8 -19l-10 -26l-5 -9l-6 -15l-8 -19l-5 -12l-8 -21l1 -26l3 -16l7 -15l11 -26l7 -16l7 -17l9 -23l7 -17l6 -16l8 -12l6 -6l4 1l7 13l9 22l12 27l8 23
l9 19l14 35l11 26l9 18l7 16l10 21l9 22l14 31l7 16l12 29l8 22l12 27l11 23l3 8l4 7l10 27l14 31l9 11l7 6l10 4l12 -1l7 -1l8 -4l17 -7l15 -4l10 -8l7 -13l5 -11v-13l-2 -12l-4 -9l-5 -14l-7 -17l-5 -14l-26 -54l-6 -13l-4 -10l-9 -20l-8 -24l-5 -10l-2 -8l-7 -18l-10 -20
l-8 -18l-6 -17l-7 -13l-9 -22l-8 -21l-8 -15l-5 -16l-6 -13l-4 -12l-7 -14l-10 -24l-10 -25l-6 -11l-4 -14l-7 -22l-11 -20l-8 -20l-7 -18l-8 -22l-9 -19l-6 -14l-5 -11l-4 -8l-9 -13l-16 -5l-47 2l-10 3l-9 9l-9 12l-10 25l-14 33l-12 25l-10 23l-6 18l-10 24l-12 34l-9 22
l-9 11l-9 -7l-4 -12l-5 -13l-6 -15l-7 -16l-8 -20l-7 -18l-8 -18l-8 -22l-7 -23l-8 -20l-6 -12l-5 -7l-8 -18l-5 -7l-11 -9l-26 -6h-30z" />
    <glyph glyph-name="X" unicode="X" horiz-adv-x="731" 
d="M589 -6l-6 7l-6 6l-7 8l-4 7l-8 8l-12 16l-11 10l-16 20l-6 7l-8 11l-15 15l-12 17l-17 17l-8 12l-5 5l-7 10l-9 11l-8 7l-10 15l-15 19l-11 11l-8 12l-12 9l-7 -2l-6 -5l-8 -8l-11 -14l-14 -18l-9 -10l-6 -8l-8 -9l-5 -8l-10 -12l-31 -40l-12 -14l-12 -12l-11 -12
l-10 -10l-7 -10l-15 -16l-20 -21l-16 -19l-12 -10l-6 -3l-15 -2l-27 13l-22 19l-14 14l-3 15l-1 9l6 11l13 17l8 12l11 11l13 17l11 11l10 11l2 5l8 8l12 13l4 9l12 12l12 18l15 18l13 16l11 13l14 15l16 20l19 24l13 17l5 10l2 12v8l-7 15l-8 12l-8 8l-8 11l-7 7l-9 6l-2 5
l-6 7l-13 13l-11 13l-9 11l-12 12l-9 11l-9 12l-9 11l-14 18l-12 14l-14 16l-6 10l-11 15l-11 21l-8 11l-5 12l2 24l10 14l11 7l12 11l17 10l17 2l10 -2l14 -10l15 -12l10 -12l6 -8l7 -9l10 -13l7 -8l18 -20l16 -22l8 -9l13 -18l13 -13l3 -6l6 -4l11 -15l13 -14l7 -9l7 -8
l11 -13l12 -11l9 -3l12 7l14 15l11 11l9 8l9 13l9 11l18 24l9 11l16 22l17 20l17 19l18 19l6 9l11 10l11 12l9 9l7 6l8 4l18 7l19 -6l10 -9l9 -7l7 -4l9 -7l8 -11l4 -11v-10l-4 -10l-15 -23l-17 -22l-13 -17l-14 -17l-12 -16l-14 -16l-14 -19l-28 -32l-8 -10l-4 -7l-10 -12
l-16 -18l-9 -12l-9 -11l-12 -13l-6 -9l-5 -10l4 -15l16 -27l21 -25l7 -10l8 -9l12 -15l20 -24l18 -22l10 -12l9 -12l10 -12l15 -17l7 -12l11 -11l9 -12l7 -10l9 -12l27 -34l8 -20v-10l-6 -15l-8 -12l-12 -9l-11 -9l-20 -12h-18z" />
    <glyph glyph-name="Y" unicode="Y" horiz-adv-x="740" 
d="M343 0l-6 2l-6 3l-8 6l-5 9l-3 9l-2 12l-2 11v28l1 38v24l-1 19l2 20l1 15l-2 10l-1 31l-1 46l-7 29l-7 10l-4 9l-9 15l-8 8l-8 13l-13 14l-6 6l-6 10l-12 14l-8 9l-6 10l-11 10l-8 7l-13 16l-15 17l-9 13l-8 11l-20 23l-16 21l-12 18l-14 15l-13 16l-5 8l-9 12l-8 16
l-3 11v13l7 12l7 9l10 6l20 15l9 2l11 5l19 -2l20 -17l20 -23l18 -17l9 -10l13 -17l11 -16l16 -21l13 -16l14 -21l9 -12l10 -14l10 -15l3 -4l3 -3l8 -10l11 -13l10 -11l12 -13l12 -11l9 -4l8 2l7 3l20 20l6 9l8 9l7 10l6 7l7 8l8 11l10 12l8 10l7 9l5 5l8 9l9 12l6 6l8 10
l9 11l5 7l6 7l3 6l2 3l8 8l9 11l6 8l8 9l11 14l7 10l7 6l16 12l19 8l14 -5l45 -36l9 -11l2 -11l-11 -23l-10 -16l-16 -19l-15 -21l-10 -13l-17 -19l-21 -22l-11 -14l-22 -30l-15 -21l-17 -19l-14 -18l-9 -9l-12 -15l-7 -8l-4 -7l-12 -15l-14 -19l-11 -18l-9 -20l-2 -28v-53
l1 -30l-3 -42l-1 -33l2 -36l-1 -34v-14l-4 -10l-8 -12l-12 -6l-23 -2h-18z" />
    <glyph glyph-name="Z" unicode="Z" horiz-adv-x="672" 
d="M83 -3l-12 4l-7 8l-3 6l-2 7l-1 15l-3 13v23l5 15l9 17l18 26l12 14l6 8l11 9l10 15l10 13l7 12l6 11l7 5l4 8l3 5l5 5l7 8l7 10l6 8l6 10l5 7l7 8l6 9l15 15l5 4l6 9l10 13l7 5l5 9l9 11l7 12l8 10l5 9l7 8l45 55l8 11l24 30l9 10l6 11l18 24l5 9l7 10l9 13l1 8l-3 3
l-5 1l-38 3l-24 -1h-19l-25 1l-23 -1l-10 1l-21 1l-63 -2l-8 -2h-37l-10 2l-10 -1l-12 1l-14 3l-16 4l-9 13l-4 11l-1 10v15l-1 16l3 15l7 13l12 7l9 3h41l18 -1l55 2l11 1h30l13 -1l21 1h7l8 -1h18l14 1l12 -1l6 1h15l8 -1l9 1l11 1l10 -3l14 -1l11 1l7 -2l7 1h6l12 1l11 2
l5 -1l14 1l12 -2l10 -1h18l15 2h11l11 1l9 1l10 -3l9 -8l3 -6l2 -11l1 -12v-28l-1 -8l-4 -14l-7 -11l-5 -11l-14 -18l-9 -12l-9 -9l-11 -15l-9 -14l-5 -8l-31 -36l-12 -15l-9 -10l-13 -17l-12 -16l-9 -11l-7 -8l-12 -15l-10 -15l-9 -12l-19 -26l-19 -24l-13 -18l-7 -10
l-7 -7l-9 -13l-21 -28l-8 -11l-11 -15l-8 -12l-9 -10l-14 -18l-9 -13l-7 -10l-11 -12l-4 -9l3 -6l28 -4h18l11 1l13 -2h21l21 -1l15 -1h52l23 -1h10l32 3h10l9 -2h18l8 1l10 -1l26 -1l31 -3l15 -12l5 -20l1 -15l-1 -12l-5 -24l-16 -18l-14 -7l-16 -1l-18 3l-13 1l-6 2l-5 -2
h-9l-14 -1l-7 1l-15 -2l-15 2l-1 2l-2 3l-4 -1l-13 -2h-75l-17 -2l-13 1h-12l-21 -1l-22 1h-29l-6 1l-12 -1l-15 1l-15 -1l-21 -2h-30l-19 -1l-11 1h-10l-15 -3z" />
    <glyph glyph-name="bracketleft" unicode="[" horiz-adv-x="414" 
d="M245 -128h-25l-16 1h-68l-21 2l-19 10l-6 6l-3 6l-2 11l-3 22l-2 27l2 23v9l2 16l-1 25v13l-1 18l3 22l1 14l-1 16l1 11l-1 9l1 23v94l1 13v79l-1 13l-2 20l2 15l1 17l-1 18l-1 10l-1 24v21l-1 17v23l2 17l1 17l-1 13l1 13l2 19l1 12l-1 11l-2 12l2 15l-1 17v8l-2 32l2 8
l-1 14l-1 8l-1 14l1 26l4 22l10 12l5 5l14 2l18 1l8 -1l9 2l11 -1l11 1l15 -1h19l17 -1l14 1l24 2l20 -2l25 -6l12 -11l5 -10l3 -9l2 -18l3 -21l-8 -21l-16 -14l-17 -5l-15 -1h-31l-19 -1l-15 -2l-4 -6l-2 -13l-1 -14l-1 -11v-14l-2 -14l1 -22v-29l3 -19l-1 -10l-2 -15
l2 -20l1 -18l-3 -21v-37l-1 -33v-48l-1 -34l-1 -20v-99l2 -30v-39l-2 -19l1 -23l1 -30v-52l1 -8l4 -9l24 -5l19 1l24 -2l31 -5l10 -7l4 -8l5 -12l1 -16v-15l-1 -12l1 -13l-13 -19l-16 -8l-20 -1z" />
    <glyph glyph-name="backslash" unicode="\" horiz-adv-x="536" 
d="M366 0l-11 6l-10 11l-6 14l-7 19l-14 31l-11 26l-9 22l-7 16l-12 27l-13 34l-14 31l-8 19l-5 14l-3 5l-5 11l-7 18l-16 37l-8 16l-5 14l-6 11l-2 10l-4 9l-5 12l-5 10l-9 20l-13 24l-6 16l-5 14l-6 14l-5 16l-5 9l-1 2l-7 17l-10 25l-11 23l-8 19l-5 18l-1 18l3 10l7 10
l13 8l11 5l5 4l11 6l14 3l19 -1l11 -5l12 -11l8 -13l5 -14l12 -26l11 -25l13 -31l11 -28l3 -10l8 -17l12 -23l5 -12l4 -13l7 -14l3 -13l9 -19l6 -15l4 -12l9 -16l5 -14l5 -16l6 -12l6 -17l9 -21l6 -11l4 -12l6 -12l6 -15l4 -9l5 -11l6 -15l5 -13l4 -9l9 -23l12 -25l6 -12
l4 -9l7 -18l14 -27l9 -22l1 -9l-1 -9l-5 -13l-7 -8l-18 -13l-27 -10l-16 -3z" />
    <glyph glyph-name="bracketright" unicode="]" horiz-adv-x="414" 
d="M117 -129l-16 8l-13 19l1 13l-1 12v15l1 16l5 12l4 8l10 7l31 5l24 2l19 -1l24 5l4 9l1 8v52l1 30l1 23l-2 19v39l2 30v27l1 33l-1 39l-1 20l-1 34l-1 25l1 23l-1 33v37l-3 21l1 18l2 20l-2 15l-1 11l3 18v29l1 22l-2 14v14l-1 11l-2 15l-1 12l-4 6l-15 2h-19l-30 1
l-16 1l-17 5l-16 14l-8 21l3 21l2 18l3 9l5 10l12 11l25 6l21 2l23 -2l15 -1l16 1h9l11 1h36l10 -2l7 1l18 -1l14 -2l6 -5l9 -12l4 -22l1 -26v-14l-2 -8l-1 -14l2 -8l-2 -32v-8l-1 -18l2 -14l-2 -24l1 -11l1 -19l1 -13l-1 -13l2 -17l1 -17v-23l-1 -17v-21l-1 -24l-1 -10
l-1 -18l1 -17l2 -15l-2 -20l-1 -13v-79l1 -13v-94l1 -23l-1 -9l1 -11l-1 -16l1 -15l3 -21l-1 -18v-13l-1 -25l2 -16v-9l2 -23l-2 -27l-3 -21l-2 -12l-3 -6l-6 -6l-19 -10l-20 -2h-69l-16 -1l-57 -2z" />
    <glyph glyph-name="asciicircum" unicode="^" horiz-adv-x="560" 
d="M143 436l-10 2l-12 4l-23 15l-13 19l-5 16l8 24l8 15l16 25l20 36l11 19l8 12l6 7l5 8l8 13l7 10l8 14l11 22l13 23l10 14l5 11l9 18l23 18l28 2l15 -1l13 -4l14 -16l11 -17l10 -18l9 -12l6 -9l9 -15l17 -28l15 -26l11 -16l9 -13l8 -14l11 -23l16 -28l9 -15l7 -17l6 -20
l-4 -11l-11 -16l-17 -13l-21 -11l-15 -4l-7 1l-15 3l-12 9l-9 14l-11 15l-8 15l-10 15l-6 10l-29 49l-10 15l-12 8h-8l-7 -6l-11 -13l-9 -16l-6 -16l-36 -61l-7 -12l-5 -9l-8 -9l-12 -9l-17 -5z" />
    <glyph glyph-name="underscore" unicode="_" horiz-adv-x="558" 
d="M230 -142l-28 2h-58l-16 1l-25 3l-12 7l-6 8l-4 8v13l-1 15l2 16l5 19l16 15l32 7l32 -3l21 3h33l23 -1h11l18 1h41l19 -1h24l29 1l33 -1h21l19 -7l9 -10l5 -18l5 -16v-19l-2 -20l-6 -10l-6 -6l-5 -3l-10 -4l-11 -1l-12 3l-21 -2h-34l-15 2h-54l-17 -1l-21 -2z" />
    <glyph glyph-name="grave" unicode="`" horiz-adv-x="368" 
d="M195 792l-11 15l-13 15l-5 12l-10 13l-14 18l-5 9l-8 11l-11 14l-11 11l-8 10l-8 14l-7 17l4 13l7 13l12 11l19 14l15 6l12 3l13 -1l10 -5l7 -7l5 -8l6 -6l5 -7l8 -10l6 -11l7 -6l5 -10l12 -15l10 -13l6 -12l11 -15l10 -17l8 -12l2 -12l-3 -13l-8 -15l-17 -12l-13 -6
l-14 -8l-22 -5z" />
    <glyph glyph-name="braceleft" unicode="{" horiz-adv-x="574" 
d="M331 -141l-26 6l-17 9l-16 7l-9 6l-7 8l-11 8l-8 11l-6 8l-6 14l-6 13l-6 22l-3 25l-2 12v33l-1 33v84l2 16l-2 25v23l-1 20l-4 21l-4 11l-12 12l-23 8h-23l-25 2l-16 2l-7 5l-5 8l-6 14l-1 24l1 21l2 10l1 6l4 7l9 7l24 6l31 -1l17 1l20 3l12 12l5 20l1 22v12l1 27l1 26
l1 18l-1 11l-1 26l1 28l-1 13l1 13l1 15l1 24l1 20v18l3 14l3 12l6 17l11 19l8 13l8 7l9 7l12 11l19 10l12 6l32 9l9 2l12 -1h17l23 -4l22 -7l10 -4l12 -8l26 -18l20 -20l5 -8l2 -11l-1 -16l-3 -9l-8 -13l-23 -21l-10 -5l-6 -2l-19 -2l-16 7l-8 6l-9 10l-7 4l-11 2l-19 -2
l-12 -5l-6 -15l-3 -32l-2 -39l1 -33l-1 -31v-99l-2 -20l-3 -33l-5 -19l-5 -14l-8 -16l-4 -10l2 -10l4 -10l3 -7l3 -11l7 -17l1 -17l3 -18l1 -31l1 -38v-35l-2 -36l-1 -39v-24l2 -16v-19l2 -19l5 -17l7 -12l11 -6l16 -1l23 12l22 12l18 4l17 -3l10 -2l19 -14l12 -25l2 -12
l-2 -11l-4 -8l-6 -11l-13 -15l-14 -12l-17 -11l-22 -9l-29 -7l-17 -2z" />
    <glyph glyph-name="bar" unicode="|" horiz-adv-x="285" 
d="M132 -93l-19 2l-20 14l-6 10l-1 8l-2 28v14l2 25l-2 26v25l1 17v28l-1 10l-1 26l1 31l-1 21v19l-1 21l1 19v43l-1 38v71l-2 40l2 30v25l1 19l-2 12l1 13l-2 17l1 12l1 20l1 17v44l2 22l12 18l23 8h22l19 -1l17 -6l11 -11l9 -20l2 -32l-1 -35v-17l2 -31v-21l-2 -22l1 -17
v-27l-1 -27l1 -12v-29l-1 -26l1 -17l1 -16v-9l-1 -13l1 -15v-14l1 -8v-10l1 -17l-1 -16l1 -15l-1 -15l1 -22l1 -25l-1 -29l2 -31l-1 -15l-1 -19v-53l1 -26l-2 -32l-7 -25l-9 -9l-7 -4l-13 -4l-16 -1z" />
    <glyph glyph-name="braceright" unicode="}" horiz-adv-x="574" 
d="M190 -142l-29 7l-21 9l-18 11l-14 12l-13 15l-6 11l-3 8l-3 11l3 12l11 25l19 14l10 2l17 3l18 -4l22 -12l23 -12l17 1l10 6l7 12l5 17l2 19l1 19l1 16v24l-1 39l-2 36v35l1 38l1 31l3 18l1 17l7 17l3 11l3 7l4 10l2 10l-4 10l-8 16l-5 14l-5 19l-3 33l-2 20v99l-1 32
l1 32l-2 39l-3 32l-6 15l-12 5l-18 2l-12 -2l-7 -4l-9 -10l-7 -6l-17 -7l-19 2l-6 2l-10 5l-23 21l-8 13l-3 9l-1 16l3 12l4 7l20 20l26 18l13 8l9 4l22 7l23 4h17l12 1l9 -2l32 -9l12 -6l19 -10l12 -11l9 -7l8 -7l8 -13l11 -19l6 -17l4 -12l2 -14v-18l2 -20v-24l1 -15
l1 -13l-1 -13l1 -29l-1 -25l-1 -12l1 -17l1 -26l1 -27v-12l1 -22l5 -20l12 -12l21 -3l17 -1l30 1l24 -6l9 -7l4 -7l2 -6l2 -11v-20l-1 -24l-6 -14l-5 -8l-7 -5l-16 -2l-25 -2h-23l-22 -8l-14 -13l-3 -10l-4 -21l-1 -20v-23l-2 -25l2 -16v-84l-1 -33v-33l-2 -12l-3 -25
l-6 -22l-6 -13l-6 -14l-5 -8l-9 -11l-11 -8l-7 -8l-9 -6l-16 -7l-17 -9l-26 -6l-36 -3z" />
    <glyph glyph-name="asciitilde" unicode="~" horiz-adv-x="652" 
d="M404 175l-11 2l-10 2l-21 7l-17 10l-13 7l-27 25l-29 31l-7 10l-7 8l-6 9l-7 8l-6 3l-15 4l-15 -3l-4 -4l-5 -14l-6 -20l-4 -15l-5 -12l-9 -8l-28 -10l-37 4l-17 11l-11 13l-5 15l-2 21l3 16l3 18l7 22l6 8l10 15l12 15l9 8l9 9l16 10l24 12l16 5l12 1l10 1l31 2l29 -9
l13 -5l13 -8l14 -12l12 -11l8 -7l8 -8l9 -10l12 -17l22 -25l14 -13l12 -6l15 2l6 2l10 10l7 19l5 21l12 21l12 10l16 3l16 1l11 -2l16 -5l19 -14l8 -16l4 -19l-2 -27l-5 -23l-20 -40l-18 -19l-18 -15l-15 -8l-13 -5l-22 -8l-19 -4h-26z" />
    <glyph glyph-name="exclamdown" unicode="&#xa1;" horiz-adv-x="302" 
d="M125 -221l-16 4l-8 7l-9 13l-6 14l-2 24l3 25v15l2 20v14l-1 21l-1 16l1 24l-1 16l1 16l-1 17l-1 14v10l1 14v28l-1 26l-1 10l3 12l-1 17l-2 17l2 17v46l2 22l-1 23l4 16l3 7l10 13l17 6l19 4h21l15 -1l9 -2l5 -2l9 -9l10 -26l-1 -21v-9l-1 -10l1 -8v-20l-2 -31v-24
l-2 -24v-25l-1 -27l2 -23l-1 -14l-1 -28l-1 -29l-1 -23l-1 -25l2 -7l1 -14l-2 -27l1 -33l1 -30l-4 -27l-10 -19l-8 -7l-10 -4h-23zM135 364l-18 7l-10 5l-9 8l-9 11l-4 8l-3 12l-2 20l4 23l6 13l15 15l14 9l5 2l13 3l14 -1h7l14 -3l21 -8l13 -13l10 -16l6 -19l-1 -18l-4 -15
l-10 -19l-19 -20l-23 -7z" />
    <glyph glyph-name="cent" unicode="&#xa2;" horiz-adv-x="640" 
d="M311 -118l-12 4l-14 8l-7 20l-1 19l-1 9l-1 16l-4 11l-8 13l-12 8l-20 7l-33 17l-16 12l-15 13l-5 7l-13 11l-10 14l-9 9l-8 14l-4 6l-4 7l-6 12l-5 9l-5 17l-8 16l-2 7l-1 7l-1 12l-4 10v28l-2 13l2 14l1 19l4 26l6 24l6 21l8 17l6 11l6 10l8 12l12 15l18 21l16 15
l16 11l22 14l21 11l12 8l9 3l9 6l8 7l6 19l2 21v9l4 20l10 10l10 6l5 2l24 4h26l9 -2l10 -3l9 -5l9 -17l3 -21l1 -16l1 -15l4 -7l11 -12l16 -8l21 -9l21 -8l24 -14l29 -23l12 -11l8 -9l8 -10l5 -14l2 -14l-1 -11l-8 -18l-23 -20l-17 -10l-9 -2l-21 2l-24 13l-18 20l-19 16
l-13 6l-8 -5l-4 -19v-61l-1 -16l2 -16l-1 -14l-1 -19l2 -21v-18l1 -14l-1 -14l1 -15l-1 -11v-8l3 -6l2 -3l8 -2l15 7l11 8l11 6l8 8l6 5l10 6l11 4h22l24 -8l11 -8l9 -14l7 -17l-3 -24l-13 -25l-19 -20l-15 -12l-16 -9l-20 -10l-15 -5l-13 -7l-17 -8l-16 -5l-5 -2l-3 -7
l-1 -11v-12l-1 -17l-1 -19l-5 -14l-7 -9l-7 -4l-17 -5l-39 -1zM269 117l3 3l2 6v58l1 29l-1 21v45l1 17l-1 20l2 21l-2 14l-2 12l-5 2l-8 -5l-12 -8l-11 -12l-14 -22l-13 -37l-8 -36l4 -29l4 -20l4 -12l9 -18l9 -15l15 -18l16 -16h7z" />
    <glyph glyph-name="sterling" unicode="&#xa3;" horiz-adv-x="738" 
d="M582 -1h-29l-32 1l-39 -1l-30 1h-68l-16 3h-22l-21 -2l-15 1l-15 -1l-49 -1l-26 1h-31l-32 10l-19 27l-7 25l4 31l12 16l10 9l17 23l16 23l11 25l6 18l2 20l-2 23l-2 13l-7 10l-21 5l-17 1h-29l-16 1l-7 2l-7 3l-7 7l-8 10l-4 15l-2 18v11l1 3l3 10l4 15l13 9l27 6h26
l12 2l9 3l5 8l-2 23v61l1 20l2 13v7l4 22l8 37l10 22l10 18l16 21l14 13l7 5l8 8l19 12l27 14l17 7l5 3l35 7l29 4l14 -1l7 -1l35 -3l6 -2h8l10 -2l9 -2l12 -2l26 -10l10 -6l9 -4l13 -8l25 -11l14 -13l22 -17l19 -20l17 -24l9 -17l-2 -30l-2 -6l-4 -7l-8 -7l-18 -11l-19 -7
l-16 1l-16 7l-10 7l-11 11l-17 18l-14 12l-9 7l-17 9l-11 9l-23 10l-16 4l-17 1l-10 1h-8l-16 -2l-24 -5l-20 -7l-22 -15l-9 -12l-6 -11l-7 -20l-1 -29l-1 -23l1 -12l1 -15v-15l6 -30l6 -10l15 -6l29 -5h39l15 2l32 -2l30 2h27l18 -2l11 -1l10 -3l10 -8l3 -4l4 -10l3 -15
l2 -16l-2 -27l-11 -22l-9 -6l-7 -1l-8 -1l-19 2l-19 -1l-19 1l-30 -1l-41 2h-16l-19 -1l-19 -3l-8 -4l-3 -8l-2 -18v-21l-2 -18l-4 -20l-5 -17l-5 -18l-6 -14v-6l4 -8l10 -7l16 -2h26l21 -1l20 -2l16 2h19l32 1l19 2h9l10 -3l41 2l7 -2h55l21 -3l13 -10l7 -17l2 -13l1 -18
l-3 -15l-3 -14l-7 -10l-13 -8l-13 -6l-11 -1z" />
    <glyph glyph-name="currency" unicode="&#xa4;" horiz-adv-x="672" 
d="M509 96l-7 4l-7 6l-12 11l-12 13l-8 10l-16 10l-15 -2l-9 -2l-12 -5l-21 -8l-19 -4l-17 -2l-25 2l-20 -1l-13 1l-12 2l-20 6l-20 9l-12 4h-5l-9 -4l-9 -10l-16 -14l-20 -16l-19 -10h-15l-14 7l-13 9l-7 6l-6 8l-7 8l-10 19l1 20l8 14l12 15l12 11l14 12l11 17l-2 12
l-10 21l-7 24l-4 22l-3 29l3 17v14l8 32l7 17l4 17v13l-9 13l-12 12l-9 10l-12 16l-9 11l-4 11l1 18l5 12l12 17l13 12l11 7l14 6h12l14 -2l8 -6l13 -12l16 -14l12 -11l15 -13h13l14 1l17 7l15 4l9 3h26l30 3l17 -3l12 -1l17 -4l37 -11h14l9 4l9 8l6 6l15 11l24 20l20 3
l12 -4l18 -13l15 -15l11 -14l4 -13v-11l-6 -11l-10 -12l-11 -13l-9 -12l-11 -11l-5 -12l-1 -13l7 -23l8 -22l2 -11l3 -18v-16l2 -12l-2 -17l-3 -10l-1 -12l-4 -23l-7 -21l-4 -16l3 -12l4 -6l9 -13l16 -17l11 -16l4 -14v-12l-2 -10l-8 -11l-16 -16l-9 -8l-10 -6l-14 -6
l-12 -1zM365 248l13 7l19 13l14 12l8 13l12 22l4 18l2 23l-6 25l-8 17l-16 19l-15 13l-12 6l-19 6l-22 3l-15 -1l-11 -2l-16 -5l-19 -8l-13 -11l-11 -15l-11 -26l-5 -26l2 -15l2 -16l6 -16l10 -18l9 -13l10 -8l12 -7l13 -6l12 -5l25 -3z" />
    <glyph glyph-name="yen" unicode="&#xa5;" horiz-adv-x="799" 
d="M380 2l-23 10l-12 16l-4 36l-1 28l-3 13l-5 8l-16 6l-18 1l-12 1h-15l-9 -1h-36l-36 5l-19 25l-4 17v20l3 18l6 13l10 9l12 5l15 3h17l14 -1h18l24 -1l23 1l18 1l7 3l3 10l-5 10l-6 3l-22 2l-37 2h-37l-30 3l-17 3l-9 6l-5 8l-4 15l-1 17l3 23l15 26l19 7l27 2h27l13 2
l8 3l1 6l-8 12l-10 13l-9 12l-6 9l-7 7l-12 15l-11 12l-3 6l-3 4l-8 10l-12 13l-9 12l-5 7l-8 8l-12 14l-19 23l-7 9l-7 10l-17 19l-14 21l-7 9l-3 18l8 16l6 9l18 15l24 15l18 3l11 -2l7 -3l9 -7l13 -14l16 -16l10 -16l16 -17l14 -20l14 -18l35 -42l11 -17l19 -24l17 -19
l19 -25l12 -15l19 -16l15 4l12 9l7 10l9 14l9 10l17 23l25 29l11 13l15 21l24 25l11 13l11 14l12 18l18 23l2 5l9 10l15 17l25 12l32 -8l28 -22l15 -24l1 -9l-4 -11l-17 -27l-26 -32l-12 -19l-11 -15l-15 -19l-10 -15l-12 -14l-17 -18l-17 -19l-15 -18l-12 -14l-10 -13
l-12 -17l-5 -12l4 -4l5 -2h20l33 -2l26 -4l12 -9l6 -9l4 -25l-2 -31l-6 -14l-11 -9l-28 -8l-18 -1h-38l-39 -1l-24 -2l-7 -2l-5 -8v-10l8 -5l16 -2h17l21 -2l4 2h2l6 -1h28l16 1l14 -3l13 -1l12 -6l10 -8l5 -11l3 -26l1 -19l-1 -7l-7 -15l-14 -12l-13 -2l-27 -1l-44 -1
l-19 -1l-10 -2l-11 -1l-14 -2l-11 -3l-5 -22l1 -28l-1 -14l-3 -15l-5 -14l-5 -7l-12 -6l-12 -5h-11z" />
    <glyph glyph-name="brokenbar" unicode="&#xa6;" horiz-adv-x="286" 
d="M136 342l-27 5l-19 14l-4 10l-4 29l1 32v33l1 23l-3 14v7l2 15l-1 21l-1 14l2 11l-2 11l1 8l-1 10v13l-1 14l1 10l2 8l4 26l1 11l4 8l8 8l15 3h36l13 -2l14 -5l18 -15l4 -24l1 -18l2 -28l-3 -19v-24l2 -13v-26l-1 -32v-45l1 -13v-13l-2 -22l-2 -30l-12 -25l-14 -3l-18 -3
zM130 -87l-21 3l-13 6l-7 13l-3 22l-2 26l2 20l-2 20v11l1 10v12l-1 13l1 13v12l-1 10v46l3 15v54l1 6v14l5 12l6 9l13 7l27 3l26 -3l14 -2l11 -10l9 -11l2 -10l2 -15v-80l1 -23l1 -14l-2 -13v-60l3 -27l-2 -17l1 -15l-1 -15l-2 -17l-5 -9l-8 -12l-15 -5l-8 -2h-12z" />
    <glyph glyph-name="section" unicode="&#xa7;" horiz-adv-x="616" 
d="M254 -9l-37 11l-14 6l-12 4l-40 25l-17 14l-9 7l-8 11l-7 8l-6 12l-6 14l1 16l5 15l7 7l17 12l23 11h15l12 -4l22 -15l23 -21l25 -15l18 -5l24 -4l14 1l23 3l24 8l18 9l13 11l4 8l2 12l-2 11l-6 7l-10 7l-14 5l-45 8l-19 4l-16 3l-40 10l-22 3l-31 8l-21 7l-17 10l-27 23
l-17 23l-6 14l-9 18l-5 22v27l2 26l7 18l4 11l7 17l15 20l6 12v10l-5 12l-11 23l-3 33l1 19l2 10l1 7l4 15l10 24l14 23l12 12l7 8l17 12l13 10l17 8l36 13l12 3l50 5h39l10 -2l11 -1l11 -2l14 -2l10 -2l16 -8l25 -10l36 -24l15 -15l16 -19l12 -20l4 -15l-1 -7l-3 -11
l-6 -11l-7 -7l-16 -11l-18 -6l-12 -3l-20 2l-46 39l-29 13l-24 8l-18 2l-9 2l-14 -1l-33 -9l-24 -17l-6 -9l-5 -13l1 -11l7 -10l14 -9l15 -4l12 -3l22 -5l34 -4l18 -3l14 -4l49 -8l20 -6l23 -10l23 -16l15 -13l14 -16l6 -8l3 -6l8 -14l7 -24l2 -15l2 -11l-2 -15l-1 -14
l-2 -11l-3 -11l-12 -26l-17 -24l-5 -8l-1 -5v-10l7 -15l7 -17l4 -23l1 -18l-1 -13l-1 -14l-2 -7l-3 -15l-5 -13l-4 -7l-12 -14l-13 -19l-11 -10l-11 -9l-14 -10l-19 -12l-30 -11l-21 -6l-17 -2l-22 -5l-32 -2zM350 306l14 1l28 9l16 15l3 8l-1 11l-3 11l-8 8l-15 9l-17 6
l-18 4l-17 4l-17 2l-17 3h-33l-20 -3l-16 -4l-15 -8l-12 -11l-5 -8v-10l10 -18l22 -16l40 -10l17 -3l19 -1l27 -3z" />
    <glyph glyph-name="dieresis" unicode="&#xa8;" horiz-adv-x="445" 
d="M335 810l-14 13l-9 10l-8 17l-3 16l-2 20l9 24l12 13l11 10l18 7l18 6l25 -3l22 -10l17 -21l11 -25l2 -11v-11l-3 -16l-8 -15l-15 -15l-25 -12l-31 -4zM117 810l-14 13l-9 10l-8 17l-3 16l-1 20l7 24l13 13l11 10l17 7l19 6l24 -3l23 -10l17 -21l10 -25l2 -11v-11l-3 -16
l-7 -15l-15 -15l-26 -12l-31 -4z" />
    <glyph glyph-name="copyright" unicode="&#xa9;" horiz-adv-x="896" 
d="M455 -14h-17l-15 1l-20 3h-25l-18 4l-10 3l-13 3l-18 7l-24 9l-20 11l-10 5l-11 7l-13 7l-9 7l-10 6l-14 13l-17 15l-11 11l-36 43l-14 27l-12 22l-13 23l-6 22l-5 13l-5 24l-4 20l-1 12l-3 17l-1 14l1 17v29l3 19l2 18l8 25l3 16l8 23l10 26l9 14l10 22l19 30l17 23
l10 9l7 9l10 11l10 10l8 4l11 11l27 15l24 12l28 13l21 6l13 6l27 9l25 4l16 3l24 -1l35 1l24 -2h11l18 -3l20 -5l13 -3l9 -4l15 -5l14 -5l14 -7l16 -9l21 -11l28 -18l21 -17l21 -20l25 -30l16 -19l7 -10l6 -12l7 -10l9 -18l10 -23l6 -20l5 -16l2 -9l4 -13l5 -25l2 -16v-14
l1 -16l-2 -17l-2 -26l-2 -16l-1 -16l-3 -20l-3 -12l-4 -17l-9 -24l-8 -22l-9 -19l-7 -12l-5 -10l-8 -10l-7 -9l-6 -9l-4 -7l-6 -7l-11 -11l-13 -10l-9 -9l-7 -6l-9 -7l-8 -7l-10 -6l-7 -6l-12 -8l-20 -11l-22 -13l-17 -7l-11 -4l-21 -7l-25 -7l-21 -3h-29zM431 207l-15 4
l-14 4l-10 4l-20 12l-16 13l-15 16l-9 13l-9 22l-8 21l-3 20v20l2 22l4 18l10 21l12 18l7 9l6 5l4 5l6 6l13 10l11 8l9 4l14 3l14 4l20 1l17 -1l21 -2l8 -3l10 -1l17 -10l23 -14l11 -9l7 -8l2 -10l-1 -11l-6 -11l-6 -6l-14 -8l-16 -1l-12 4l-11 8l-14 8l-15 5l-13 1l-23 -2
l-17 -9l-15 -17l-11 -29l-2 -30l5 -18l6 -10l16 -16l17 -9l21 -4l25 1l11 5l12 11l12 9l7 3l14 -2l17 -10l13 -14l2 -13l-5 -11l-16 -16l-18 -14l-18 -9l-22 -7l-15 -5h-18zM498 48l16 1l7 1l6 4l5 2l16 3l15 7l15 5l23 13l25 15l31 23l19 20l5 7l10 15l18 23l15 22l9 14
l8 26l5 24l4 27l2 32l2 17l-1 23l-2 18l-8 35l-8 27l-12 26l-6 22l-8 12l-10 19l-14 19l-9 11l-13 13l-24 19l-17 14l-12 8l-22 12l-16 8l-17 6l-30 9l-16 5l-22 4l-29 1h-17l-20 -1l-40 -6l-27 -8l-40 -18l-34 -18l-14 -9l-21 -11l-11 -14l-11 -11l-7 -6l-15 -21l-11 -20
l-5 -9l-6 -13l-8 -17l-7 -20l-6 -19l-3 -16l-6 -28l-2 -30l1 -15l1 -17l2 -19l1 -18l1 -7l3 -12l5 -22l3 -18l15 -28l24 -36l12 -16l25 -30l20 -17l24 -16l8 -4l6 -4l22 -12l25 -12l21 -6l21 -3l11 -3l19 -2l17 -2l29 -1z" />
    <glyph glyph-name="guillemotleft" unicode="&#xab;" horiz-adv-x="753" 
d="M301 136l-23 20l-17 16l-20 15l-12 12l-20 14l-22 19l-13 12l-10 8l-7 6l-11 7l-17 14l-27 21l-16 17l-5 9l-1 14l2 11l4 7l7 8l6 8l12 10l20 16l22 19l20 12l12 10l14 15l14 10l8 6l17 14l24 18l10 10l16 11l13 12l16 12l22 9l13 -4l11 -7l13 -12l14 -16l7 -13l3 -10
l-1 -15l-8 -17l-12 -13l-12 -9l-16 -14l-13 -10l-16 -15l-22 -18l-15 -10l-8 -6l-14 -14l-12 -17l2 -8l10 -10l20 -19l20 -18l16 -13l17 -12l11 -8l9 -6l17 -15l15 -12l9 -14l6 -20l-3 -16l-5 -11l-11 -13l-12 -13l-12 -8l-14 -5h-18zM571 136l-23 20l-17 16l-20 15l-12 12
l-20 14l-22 19l-13 12l-10 8l-7 6l-11 7l-17 14l-27 21l-16 17l-5 9l-1 14l2 11l4 7l7 8l6 8l12 10l20 16l22 19l20 12l12 10l14 15l14 10l8 6l17 14l24 18l10 10l16 11l13 12l16 12l22 9l13 -4l11 -7l13 -12l14 -16l7 -13l3 -10l-1 -15l-8 -17l-12 -13l-12 -9l-16 -14
l-13 -10l-16 -15l-22 -18l-15 -10l-8 -6l-14 -14l-12 -17l2 -8l10 -10l20 -19l20 -18l16 -13l17 -12l11 -8l9 -6l17 -15l15 -12l9 -14l6 -20l-3 -16l-5 -11l-11 -13l-12 -13l-12 -8l-14 -5h-18z" />
    <glyph glyph-name="logicalnot" unicode="&#xac;" horiz-adv-x="637" 
d="M462 185l-8 5l-6 5l-8 15l-5 29l-3 25l-7 12l-5 3l-14 1h-27l-17 2l-115 1l-22 -1h-8l-14 -2l-66 -1h-15l-13 3l-17 7l-10 14l-2 22v15l2 13l5 21l5 8l11 6l13 5l34 1l22 -2h22l24 -1l24 1h132l15 -1l15 1h103l25 -4l15 -11l8 -20v-16l1 -24v-18l1 -33l-1 -28l-2 -21
l-6 -18l-17 -11l-13 -5h-15l-15 -1z" />
    <glyph glyph-name="registered" unicode="&#xae;" horiz-adv-x="897" 
d="M446 -22l-43 2l-26 5l-21 5l-17 5l-14 5l-30 12l-18 11l-22 11l-21 13l-16 11l-16 14l-40 42l-7 10l-11 13l-9 15l-12 17l-10 23l-9 18l-7 23l-5 20l-4 17l-4 20l-1 23l-3 26v34l4 26l4 18l4 24l6 20l4 12l18 48l14 22l5 9l8 13l41 50l29 28l17 12l26 15l17 11l14 7l14 5
l24 8l27 8l23 6l22 2l20 3h10l11 -1l18 -1l30 -3l33 -5l19 -6l19 -4l27 -11l31 -11l18 -11l13 -6l48 -36l24 -24l12 -13l10 -9l14 -20l13 -25l16 -31l12 -38l5 -18l7 -30l3 -14l1 -26l2 -39l-1 -20l-3 -24l-9 -43l-12 -45l-15 -36l-14 -22l-12 -19l-16 -22l-35 -35l-58 -40
l-19 -12l-22 -10l-18 -7l-32 -13l-20 -5l-17 -2l-14 -2l-9 -1l-16 -3zM496 216l-8 13l-8 11l-13 17l-14 18l-8 8l-15 8h-14l-5 -8l-3 -12v-15l-1 -16l-5 -17l-9 -7l-15 -3l-21 -1l-10 1l-10 5l-5 16v87l1 38l1 23l-1 13l2 14v26l2 25l2 9l5 8l9 2h16l28 -1l19 2l19 -2l43 -1
l15 -3l18 -2l21 -4l17 -11l9 -11l6 -11l9 -17l4 -19v-15l-1 -10l-10 -31l-20 -25l-10 -12l-2 -5l3 -9l13 -21l14 -18l5 -7l1 -10l-20 -18l-22 -13l-11 -3zM475 49l17 4l8 1l11 1l23 6l36 13l24 12l17 10l13 10l9 5l22 20l27 27l15 22l18 28l11 24l6 20l7 23l3 26l3 21v29
l-2 19l-1 27l-4 22l-5 19l-8 24l-10 26l-12 24l-19 29l-34 32l-22 19l-19 13l-16 9l-22 12l-13 5l-20 7l-29 7l-18 3l-23 2l-29 -2l-44 -2l-19 -3l-22 -5l-29 -12l-24 -11l-11 -7l-10 -9l-26 -19l-16 -16l-11 -13l-19 -27l-15 -25l-12 -23l-9 -16l-7 -25l-8 -34l-4 -46
l2 -25v-18l1 -18l7 -28l9 -27l11 -25l7 -15l12 -20l16 -22l24 -26l21 -16l20 -15l25 -16l22 -11l25 -11l23 -6l9 -2l26 -4l39 -4zM494 374l8 11l-1 9l-8 11l-16 5l-24 3h-21l-9 -3l-7 -4l-5 -9l-2 -8l1 -9l5 -5l3 -2l19 -2l32 -1z" />
    <glyph glyph-name="macron" unicode="&#xaf;" horiz-adv-x="457" 
d="M285 830l-34 1l-28 -1l-29 1h-49l-35 2l-14 6l-5 9l-5 13l-6 17l1 16l3 18l9 16l7 4l18 5l29 1l22 -2l12 2h15l22 -1h14l11 -2h22l20 3h14l30 -2l17 -7l10 -10l5 -16l3 -22v-12l-2 -11l-6 -11l-6 -7l-10 -6l-10 -3l-15 -4h-12z" />
    <glyph glyph-name="degree" unicode="&#xb0;" horiz-adv-x="505" 
d="M243 459l-10 1l-21 3l-21 7l-17 8l-14 10l-12 8l-7 9l-15 14l-15 21l-9 15l-4 12l-6 9l-6 17l-4 20l-2 17l1 16v9l3 11l8 27l16 29l11 14l5 7l12 10l14 13l10 9l12 6l16 9l20 6l25 3h20l14 -1l15 -2l19 -3l21 -7l15 -7l19 -12l21 -20l13 -11l14 -20l15 -36l4 -30l1 -19
l-2 -24l-9 -33l-8 -19l-11 -16l-14 -21l-14 -13l-32 -24l-14 -6l-28 -11l-17 -5l-20 -2zM257 577l13 3l9 3l11 9l10 17l4 21l-3 21l-6 13l-9 8l-25 10l-23 -2l-17 -9l-10 -11l-8 -16l-2 -20l3 -10l6 -14l11 -11l14 -8l10 -4h12z" />
    <glyph glyph-name="plusminus" unicode="&#xb1;" horiz-adv-x="618" 
d="M282 268l-13 4l-7 8l-4 8l-7 19l-3 37l-1 24l-3 8l-11 4l-15 1h-12l-14 2l-29 1l-32 2l-19 3l-11 6l-13 15l-6 15l-2 13l1 20l4 19l7 12l7 6l15 3l31 2h23l9 2l12 -1h17l17 2l14 3l8 7l2 11v33l3 38l10 18l19 11l40 2l11 -4h8l6 -2l8 -5l10 -13l5 -15l2 -26l1 -33l2 -15
l2 -5l5 -3l15 -4l32 -2h30l23 -2l28 -3l19 -16l4 -11l4 -17v-27l-3 -13l-4 -11l-16 -10l-15 -2l-27 -2h-25l-13 -2h-27l-25 -2l-10 -6l-3 -23v-19l1 -29l-3 -18l-10 -13l-14 -5l-16 -1h-22zM173 104l-27 -1h-24l-10 2l-10 3l-9 6l-7 13l-3 11l-1 15v18l1 14l3 10l5 10l9 8
l17 7l24 1h14l12 3l19 -2l16 2l10 -2l7 1h7l17 -1l24 -2l16 1l15 -1l21 1l25 -1h19l17 -1h18l18 2l27 -2l23 1l18 1l13 -3l15 -4l9 -6l11 -12l5 -15l1 -24l-4 -23l-6 -13l-6 -8l-14 -7l-22 -4l-18 1l-36 -2h-98l-19 1l-7 1l-7 -1l-15 -1l-19 1l-16 -1h-16l-15 1h-12l-19 -1z
" />
    <glyph glyph-name="acute" unicode="&#xb4;" horiz-adv-x="368" 
d="M139 790l-14 8l-13 6l-17 12l-8 15l-3 13l2 12l8 12l10 17l11 15l7 12l9 13l12 15l5 10l7 6l6 11l8 10l5 7l6 6l5 8l7 7l10 5h13l12 -2l15 -6l19 -14l13 -11l6 -13l4 -14l-7 -17l-8 -13l-8 -10l-11 -11l-11 -14l-8 -11l-5 -9l-14 -18l-10 -13l-5 -12l-13 -15l-11 -15
l-12 -7z" />
    <glyph glyph-name="paragraph" unicode="&#xb6;" horiz-adv-x="628" 
d="M277 -88l-10 3l-13 8l-8 13l-4 19l-1 32l1 25l-1 13l1 13l-1 17l2 23v22l1 18v40l-1 23v24l1 30l-2 31l-5 16l-8 5l-19 8l-19 10l-13 9l-15 10l-9 8l-13 10l-16 17l-12 18l-11 20l-9 17l-3 14l-2 12l-3 8l-3 12l-1 16v13l-1 17l1 17l4 10l4 13l2 12l11 26l5 10l4 11
l11 16l15 17l20 20l21 14l11 6l12 4l16 7l19 6l29 4l21 1h20l29 -3l9 -4l7 -6l9 -17l1 -23l2 -22v-14l-1 -9l1 -13v-19l-1 -11l1 -9l-1 -16l-1 -15v-11l-1 -19l1 -29l-1 -22l1 -21l-1 -29l3 -19l-3 -13v-69l-1 -26v-17l-1 -17l1 -22l-2 -29l3 -35v-37l1 -36v-54l1 -22
l-1 -17l2 -25l-6 -17l-7 -9l-14 -8l-29 -6zM463 -89l-11 2l-17 12l-10 18l-2 10v19l1 13l-1 16v28l2 22v63l1 28l-2 24l-1 18v18l1 13l-1 18l2 21l1 20l2 17l-2 18l2 18l-1 12l-1 16l1 24l-1 27l1 24l-2 18l1 18l1 16l1 19v13l-1 7l-1 22l-1 20l1 38v38l2 25l4 12l6 14l6 6
l18 6l24 1l11 -1l7 1l12 -4l11 -6l9 -9l7 -14l2 -12v-42l1 -9l-1 -15v-15l-1 -10l-2 -24l2 -22l-1 -14l1 -18l-1 -14v-13l2 -20v-24l-1 -13l2 -22l-1 -21l1 -21l-2 -18v-46l-1 -12l1 -13l-1 -20v-35l2 -31l1 -20l1 -14l-1 -28l2 -35l-1 -22l-1 -19l-1 -21l1 -24l-3 -18
l-1 -20l-3 -13l-4 -6l-7 -8l-9 -6l-9 -2z" />
    <glyph glyph-name="periodcentered" unicode="&#xb7;" horiz-adv-x="305" 
d="M117 252l-14 12l-10 10l-8 18l-4 15v20l8 24l12 13l12 9l16 8l19 6l25 -3l22 -11l17 -21l11 -24l2 -10v-11l-3 -16l-8 -16l-15 -14l-25 -13l-30 -3z" />
    <glyph glyph-name="cedilla" unicode="&#xb8;" horiz-adv-x="437" 
d="M201 -282h-13l-15 2l-13 2l-11 4l-13 4l-14 7l-21 14l-16 17l-4 15v14l9 18l17 20l10 6l16 1l19 -5l9 -4l16 -10l15 -5l14 3l11 6l4 9l-3 10l-6 6l-11 2l-17 -1h-18l-13 2l-9 6l-10 8l-7 12l-4 9l-2 15l1 14l2 12l6 15l4 17l5 17l4 10l4 6l8 3h5l20 1h37l24 -2l8 -6
l-1 -14l-4 -12l-2 -12l-2 -13l1 -5l5 -4l5 -3l13 -5l13 -8l18 -10l17 -18l13 -25l6 -23v-12l-3 -29l-9 -25l-9 -13l-14 -15l-22 -13l-11 -6l-8 -3l-12 -4l-12 -3l-10 -1h-8z" />
    <glyph glyph-name="guillemotright" unicode="&#xbb;" horiz-adv-x="754" 
d="M394 122l-12 8l-11 13l-12 13l-5 11l-3 16l6 20l9 14l15 12l17 15l10 6l10 8l17 12l16 13l41 37l9 10l2 8l-12 17l-14 14l-8 6l-15 10l-22 18l-15 15l-14 10l-16 14l-12 9l-12 13l-8 17v15l2 10l7 13l14 16l13 12l12 7l12 4l22 -9l17 -12l12 -12l16 -11l10 -10l24 -18
l17 -14l8 -6l14 -10l14 -15l12 -10l19 -12l23 -19l20 -16l12 -10l6 -8l7 -8l4 -7l2 -11l-1 -14l-5 -9l-16 -17l-26 -21l-18 -14l-11 -7l-7 -6l-10 -8l-13 -12l-22 -19l-20 -14l-12 -12l-20 -15l-17 -16l-23 -20l-27 -19h-19zM124 122l-12 8l-11 13l-12 13l-5 11l-3 16l6 20
l9 14l15 12l17 15l10 6l10 8l17 12l16 13l41 37l9 10l2 8l-12 17l-14 14l-8 6l-15 10l-22 18l-15 15l-14 10l-16 14l-12 9l-12 13l-8 17v15l2 10l7 13l14 16l13 12l12 7l12 4l22 -9l17 -12l12 -12l16 -11l10 -10l24 -18l17 -14l8 -6l14 -10l14 -15l12 -10l19 -12l23 -19
l20 -16l12 -10l6 -8l7 -8l4 -7l2 -11l-1 -14l-5 -9l-16 -17l-26 -21l-18 -14l-11 -7l-7 -6l-10 -8l-13 -12l-22 -19l-20 -14l-12 -12l-20 -15l-17 -16l-23 -20l-27 -19h-19z" />
    <glyph glyph-name="onequarter" unicode="&#xbc;" horiz-adv-x="967" 
d="M77 274l-12 11l-5 10l-5 21v25l4 16l12 13l16 7l17 4l12 3l3 6l1 11l1 10l-1 11l1 18v45l1 13l-1 11v22l-2 24l-7 16h-7l-8 -3l-10 -4l-10 -1l-15 8l-10 10l-5 7l-5 11l-4 8l-5 13l-3 18l4 10l6 7l10 7l14 7l15 6l12 6l19 11l18 9l11 4l22 3h43l15 -8l7 -9l3 -13l1 -28
v-26l1 -19l-1 -19l1 -9l-1 -7v-12l-2 -13l-1 -11v-12l1 -20v-27l-2 -21v-23l1 -8l2 -13l2 -15l1 -6l4 -8l13 -5l16 -3l14 -10l8 -16l3 -14v-15l-4 -19l-6 -16l-14 -8l-18 -3l-36 -2h-46l-39 -1h-20zM299 -12l-18 5l-19 5l-14 6l-8 9l-7 11l-2 8l2 10l4 12l6 20l8 12l5 9
l7 16l14 23l7 12l11 23l17 32l14 26l9 18l9 8l4 9l5 9l9 22l13 18l9 14l8 18l10 11l5 9l9 16l11 26l9 14l8 11l9 16l1 9l7 17l12 24l14 27l16 27l10 16l8 14l13 26l12 21l6 12l9 15l8 10l7 14l7 12l5 7l10 10l15 6h15l13 -3l14 -8l18 -6l11 -10l8 -15l-1 -18v-5l-3 -13
l-14 -25l-15 -28l-15 -33l-12 -21l-7 -16l-17 -29l-12 -20l-10 -18l-9 -18l-10 -19l-14 -27l-11 -19l-12 -23l-11 -20l-8 -16l-9 -14l-5 -8l-8 -15l-10 -15l-7 -8l-8 -15l-11 -18l-10 -17l-10 -18l-16 -30l-10 -23l-5 -8l-8 -19l-18 -29l-11 -20l-7 -12l-6 -14l-8 -12
l-11 -14l-9 -7l-6 -2h-6zM724 2l-17 12l-4 11l-2 13l1 14l1 10l2 18l7 14l3 3l9 5l11 1l10 4l12 1l7 2l4 5l-4 7l-11 3h-29l-27 -2l-25 -1h-45l-10 2l-11 2l-9 4l-14 15l-8 18l-2 8l-1 16l2 15l4 12l7 16l6 18l9 17l6 16l3 10l3 8l5 12l6 13l4 14l6 13l5 12l6 12l3 10l4 9
l5 10l5 8l4 10l6 8l6 3l3 3l7 3l15 2l18 -4l12 -6l11 -9l6 -8l6 -18l-1 -17l-5 -26l-9 -31l-12 -31l-8 -27l-3 -13l-2 -9l2 -9l17 -5l20 1l9 3l4 7l2 14l1 25v22l3 16l5 12l5 8l8 4h23l6 3l6 -2h14l14 -2l9 -3l8 -12l2 -13l1 -12l-1 -17l1 -17l-1 -17l4 -14l6 -7l8 -2l9 1
l10 -1l14 -5l11 -18v-46l-1 -9l-4 -12l-5 -5l-6 -2l-11 -3l-16 -2l-13 -4v-9l4 -6l5 -1h9l16 -2l10 -2l7 -6l4 -16l3 -24l-1 -19l-3 -12l-8 -10l-6 -5l-8 -2l-23 -1h-22l-20 -2l-30 -1h-16l-14 -1l-25 1l-19 -1z" />
    <glyph glyph-name="onehalf" unicode="&#xbd;" horiz-adv-x="970" 
d="M77 274l-12 11l-5 10l-5 21v25l4 16l12 13l16 7l17 4l12 3l3 6l1 11l1 10l-1 11l1 18v45l1 13l-1 11v22l-2 24l-7 16h-7l-8 -3l-10 -4l-10 -1l-15 8l-10 10l-5 7l-5 11l-4 8l-5 13l-3 18l4 10l6 7l10 7l14 7l15 6l12 6l19 11l18 9l11 4l22 3h43l15 -8l7 -9l3 -13l1 -28
v-26l1 -19l-1 -19l1 -9l-1 -7v-12l-2 -13l-1 -11v-12l1 -20v-27l-2 -21v-23l1 -8l2 -13l2 -15l1 -6l4 -8l13 -5l16 -3l14 -10l8 -16l3 -14v-15l-4 -19l-6 -16l-14 -8l-18 -3l-36 -2h-46l-39 -1h-20zM299 -12l-18 5l-19 5l-14 6l-8 9l-7 11l-2 8l2 10l4 12l6 20l8 12l5 9
l7 16l14 23l7 12l11 23l17 32l14 26l9 18l9 8l4 9l5 9l9 22l13 18l9 14l8 18l10 11l5 9l9 16l11 26l9 14l8 11l9 16l1 9l7 17l12 24l14 27l16 27l10 16l8 14l13 26l12 21l6 12l9 15l8 10l7 14l7 12l5 7l10 10l15 6h15l13 -3l14 -8l18 -6l11 -10l8 -15l-1 -18v-5l-3 -13
l-14 -25l-15 -28l-15 -33l-12 -21l-7 -16l-17 -29l-12 -20l-10 -18l-9 -18l-10 -19l-14 -27l-11 -19l-12 -23l-11 -20l-8 -16l-9 -14l-5 -8l-8 -15l-10 -15l-7 -8l-8 -15l-11 -18l-10 -17l-10 -18l-16 -30l-10 -23l-5 -8l-8 -19l-18 -29l-11 -20l-7 -12l-6 -14l-8 -12
l-11 -14l-9 -7l-6 -2h-6zM664 1l-9 1l-10 2l-14 2l-14 5l-11 11l-9 16l-5 21v13l2 6l1 7l4 13l5 14l6 7l6 8l2 6l6 8l10 10l9 7l9 6l6 6l5 4l6 4l8 4l5 5l11 5l12 8l9 5l9 4l5 3l9 5l11 8l7 6l12 5l21 13l18 14l11 18l7 15v14l-2 9l-7 10l-15 9l-12 4l-13 3l-16 1l-16 -3
l-10 -4l-12 -6l-15 -17l-18 -17l-20 -5l-16 1l-13 3l-19 11l-13 19l-4 19l1 7l2 5l4 6l5 11l10 17l12 14l20 14l12 6l12 7l14 7l8 2l12 5l12 4h10l21 4l19 2l20 -2l9 -2l6 -3l15 -4l21 -6l7 -6l14 -8l18 -15l11 -9l7 -10l10 -14l7 -12l3 -14l4 -13l1 -23l2 -27l-6 -32
l-8 -23l-4 -8l-8 -11l-9 -12l-19 -20l-25 -24l-16 -9l-7 -6l-19 -12l-23 -12l-10 -8l2 -4l43 -5l18 1h29l19 -1l9 -1l10 1l9 -5l9 -6l6 -7l4 -8l4 -36l-2 -12l-6 -13l-10 -9l-7 -5l-5 2l-5 -1l-11 -3l-13 -1h-45l-33 2h-15l-10 -1l-10 1l-19 -1h-43l-24 -1z" />
    <glyph glyph-name="threequarters" unicode="&#xbe;" horiz-adv-x="1004" 
d="M182 255l-14 1l-8 3l-12 3l-14 2l-13 6l-7 2l-7 3l-7 6l-13 8l-14 13l-9 10l-13 13l-9 14l-10 16l-2 20l2 13l4 9l11 12l19 10l18 4l16 -1l10 -2l14 -11l13 -16l8 -11l11 -7l13 -7l15 -5l24 1l36 19l15 29l-1 12l-3 6l-8 14l-15 10l-17 6l-5 1l-21 -1l-30 -6l-15 -4
l-17 4l-23 18l-11 16l-4 12l-3 12v12l9 13l18 15l23 21l15 13l3 4l1 8l-6 3l-6 1l-24 -1l-29 1l-18 1l-13 7l-4 4l-8 17l-8 27l3 22l6 11l6 8l4 6l14 3h18l18 1h27l17 1h77l27 -1h41l10 -1l12 -1l10 -3l8 -3l8 -9l3 -12l1 -16l3 -21l-6 -16l-19 -19l-23 -21l-23 -19l-10 -15
l2 -3l3 -2l17 -9l17 -11l8 -4l33 -33l6 -9l7 -27l4 -24l-1 -15l-1 -28l-4 -25l-5 -12l-10 -22l-24 -27l-16 -12l-17 -11l-24 -13l-14 -3l-5 -2l-15 -4l-26 -3zM336 -12l-18 5l-19 5l-14 6l-8 9l-7 11l-2 8l2 10l4 12l6 20l8 12l5 9l7 16l14 23l7 12l11 23l17 32l14 26l9 18
l9 8l4 9l5 9l9 22l13 18l9 14l8 18l10 11l5 9l9 16l11 26l9 14l8 11l9 16l1 9l7 17l12 24l14 27l16 27l10 16l8 14l13 26l12 21l6 12l9 15l8 10l7 14l7 12l5 7l10 10l15 6h15l13 -3l14 -8l18 -6l11 -10l8 -15l-1 -18v-5l-3 -13l-14 -25l-15 -28l-15 -33l-12 -21l-7 -16
l-17 -29l-12 -20l-10 -18l-9 -18l-10 -19l-14 -27l-11 -19l-12 -23l-11 -20l-8 -16l-9 -14l-5 -8l-8 -15l-10 -15l-7 -8l-8 -15l-11 -18l-10 -17l-10 -18l-16 -30l-10 -23l-5 -8l-8 -19l-18 -29l-11 -20l-7 -12l-6 -14l-8 -12l-11 -14l-9 -7l-6 -2h-6zM761 2l-17 12l-4 11
l-2 13l1 14l1 10l2 18l7 14l3 3l9 5l11 1l10 4l12 1l7 2l4 5l-4 7l-11 3h-29l-27 -2l-25 -1h-45l-10 2l-11 2l-9 4l-14 15l-8 18l-2 8l-1 16l2 15l4 12l7 16l6 18l9 17l6 16l3 10l3 8l5 12l6 13l4 14l6 13l5 12l6 12l3 10l4 9l5 10l5 8l4 10l6 8l6 3l3 3l7 3l15 2l18 -4
l12 -6l11 -9l6 -8l6 -18l-1 -17l-5 -26l-9 -31l-12 -31l-8 -27l-3 -13l-2 -9l2 -9l17 -5l20 1l9 3l4 7l2 14l1 25v22l3 16l5 12l5 8l8 4h23l6 3l6 -2h14l14 -2l9 -3l8 -12l2 -13l1 -12l-1 -17l1 -17l-1 -17l4 -14l6 -7l8 -2l9 1l10 -1l14 -5l11 -18v-46l-1 -9l-4 -12l-5 -5
l-6 -2l-11 -3l-16 -2l-13 -4v-9l4 -6l5 -1h9l16 -2l10 -2l7 -6l4 -16l3 -24l-1 -19l-3 -12l-8 -10l-6 -5l-8 -2l-23 -1h-22l-20 -2l-30 -1h-16l-14 -1l-25 1l-19 -1z" />
    <glyph glyph-name="questiondown" unicode="&#xbf;" horiz-adv-x="659" 
d="M305 -240l-19 1l-11 2l-18 3l-22 7l-21 7l-12 6l-14 6l-13 6l-34 25l-12 10l-10 15l-13 16l-8 16l-9 24l-4 13l-2 13l-2 16v34l4 14l9 25l11 18l11 15l10 12l15 13l20 12l11 4l13 9l47 21l9 3l15 7l54 18l23 11l13 8l7 11l-1 16l-20 8l-16 -5l-9 -7l-6 -11l-7 -13l-11 -9
l-9 -4l-15 -5l-20 -1l-12 3l-9 2l-9 3l-12 14l-7 11l-3 6l-2 20l6 26l6 16l9 15l7 9l5 6l8 7l16 11l23 12l19 7l7 2l15 3l23 2l16 -1h8l48 -13l15 -10l25 -20l14 -19l8 -13l9 -24l3 -32l-2 -29l-3 -16l-8 -21l-14 -20l-10 -12l-12 -9l-7 -8l-7 -5l-9 -5l-20 -10l-21 -11
l-8 -3l-17 -6l-48 -19l-24 -11l-26 -13l-9 -5l-16 -11l-12 -17l-1 -16l2 -16l8 -14l8 -5l11 -9l20 -11l14 -6l13 -4l13 -2l17 -3l21 -2l16 3l18 2l18 6l6 3l19 12l29 21l23 31l18 27l13 10l11 4h21l21 -4l11 -7l17 -11l8 -14l2 -14l-1 -16l-7 -22l-10 -21l-6 -10l-8 -11
l-14 -16l-23 -23l-10 -8l-17 -11l-19 -11l-17 -8l-33 -13l-25 -8l-25 -4l-34 -2zM306 360l-16 9l-18 12l-11 17l-7 24l3 28l8 16l9 10l11 12l21 9l15 2h17l14 -1l9 -2l10 -5l14 -13l9 -18l4 -13l2 -12l-1 -16l-4 -17l-6 -10l-11 -14l-18 -13l-14 -3l-12 -3l-11 -1z" />
    <glyph glyph-name="Agrave" unicode="&#xc0;" horiz-adv-x="768" 
d="M110 -12l-13 3l-18 9l-14 11l-10 12l-4 12v18l9 18l6 15l5 11l6 12l9 21l6 16l19 38l10 22l9 23l16 31l10 23l7 14l7 15l8 17l14 36l12 21l8 22l14 30l16 37l9 20l15 38l11 23l5 15l9 17l7 14l2 8l4 10l5 14l7 10l6 12l6 11l4 8l7 12l12 10l25 5h27l13 -3l11 -10l7 -13
l6 -12l10 -23l10 -22l19 -37l6 -16l7 -13l6 -18l8 -18l5 -14l7 -14l11 -25l11 -22l7 -18l7 -12l4 -11l7 -15l9 -16l6 -16l6 -17l6 -10l5 -13l10 -18l8 -20l13 -31l18 -34l10 -24l7 -15l4 -9l4 -13l12 -24l9 -19l5 -8l9 -19l7 -21l5 -17l-4 -22l-11 -13l-20 -10l-35 -9l-23 5
l-9 8l-10 10l-3 13l-9 19l-11 23l-6 11l-9 20l-11 23l-4 9l-7 12l-9 16l-7 13l-10 7l-20 2l-25 -1h-117l-33 1l-26 -2l-14 1l-17 -2l-16 -1l-13 -7l-6 -9l-20 -40l-10 -18l-3 -11l-5 -10l-6 -14l-8 -17l-5 -15l-10 -16l-12 -18l-11 -9l-16 -4zM465 292l1 1l3 1l4 9l-3 18
l-6 15l-22 39l-10 19l-13 32l-8 19l-7 18l-11 26l-12 10l-8 -16l-8 -25l-17 -38l-13 -27l-9 -25l-8 -18l-10 -20l-1 -8l-2 -9v-10l7 -7l17 -1h18l28 -2l67 -2zM395 792l-11 15l-13 15l-5 12l-10 13l-14 18l-5 9l-8 11l-11 14l-11 11l-8 10l-8 14l-7 17l4 13l7 13l12 11
l19 14l15 6l12 3l13 -1l10 -5l7 -7l5 -8l6 -6l5 -7l8 -10l6 -11l7 -6l5 -10l12 -15l10 -13l6 -12l11 -15l10 -17l8 -12l2 -12l-3 -13l-8 -15l-17 -12l-13 -6l-14 -8l-22 -5z" />
    <glyph glyph-name="Aacute" unicode="&#xc1;" horiz-adv-x="768" 
d="M110 -12l-13 3l-18 9l-14 11l-10 12l-4 12v18l9 18l6 15l5 11l6 12l9 21l6 16l19 38l10 22l9 23l16 31l10 23l7 14l7 15l8 17l14 36l12 21l8 22l14 30l16 37l9 20l15 38l11 23l5 15l9 17l7 14l2 8l4 10l5 14l7 10l6 12l6 11l4 8l7 12l12 10l25 5h27l13 -3l11 -10l7 -13
l6 -12l10 -23l10 -22l19 -37l6 -16l7 -13l6 -18l8 -18l5 -14l7 -14l11 -25l11 -22l7 -18l7 -12l4 -11l7 -15l9 -16l6 -16l6 -17l6 -10l5 -13l10 -18l8 -20l13 -31l18 -34l10 -24l7 -15l4 -9l4 -13l12 -24l9 -19l5 -8l9 -19l7 -21l5 -17l-4 -22l-11 -13l-20 -10l-35 -9l-23 5
l-9 8l-10 10l-3 13l-9 19l-11 23l-6 11l-9 20l-11 23l-4 9l-7 12l-9 16l-7 13l-10 7l-20 2l-25 -1h-117l-33 1l-26 -2l-14 1l-17 -2l-16 -1l-13 -7l-6 -9l-20 -40l-10 -18l-3 -11l-5 -10l-6 -14l-8 -17l-5 -15l-10 -16l-12 -18l-11 -9l-16 -4zM465 292l1 1l3 1l4 9l-3 18
l-6 15l-22 39l-10 19l-13 32l-8 19l-7 18l-11 26l-12 10l-8 -16l-8 -25l-17 -38l-13 -27l-9 -25l-8 -18l-10 -20l-1 -8l-2 -9v-10l7 -7l17 -1h18l28 -2l67 -2zM339 790l-14 8l-13 6l-17 12l-8 15l-3 13l2 12l8 12l10 17l11 15l7 12l9 13l12 15l5 10l7 6l6 11l8 10l5 7l6 6
l5 8l7 7l10 5h13l12 -2l15 -6l19 -14l13 -11l6 -13l4 -14l-7 -17l-8 -13l-8 -10l-11 -11l-11 -14l-8 -11l-5 -9l-14 -18l-10 -13l-5 -12l-13 -15l-11 -15l-12 -7z" />
    <glyph glyph-name="Acircumflex" unicode="&#xc2;" horiz-adv-x="768" 
d="M110 -12l-13 3l-18 9l-14 11l-10 12l-4 12v18l9 18l6 15l5 11l6 12l9 21l6 16l19 38l10 22l9 23l16 31l10 23l7 14l7 15l8 17l14 36l12 21l8 22l14 30l16 37l9 20l15 38l11 23l5 15l9 17l7 14l2 8l4 10l5 14l7 10l6 12l6 11l4 8l7 12l12 10l25 5h27l13 -3l11 -10l7 -13
l6 -12l10 -23l10 -22l19 -37l6 -16l7 -13l6 -18l8 -18l5 -14l7 -14l11 -25l11 -22l7 -18l7 -12l4 -11l7 -15l9 -16l6 -16l6 -17l6 -10l5 -13l10 -18l8 -20l13 -31l18 -34l10 -24l7 -15l4 -9l4 -13l12 -24l9 -19l5 -8l9 -19l7 -21l5 -17l-4 -22l-11 -13l-20 -10l-35 -9l-23 5
l-9 8l-10 10l-3 13l-9 19l-11 23l-6 11l-9 20l-11 23l-4 9l-7 12l-9 16l-7 13l-10 7l-20 2l-25 -1h-117l-33 1l-26 -2l-14 1l-17 -2l-16 -1l-13 -7l-6 -9l-20 -40l-10 -18l-3 -11l-5 -10l-6 -14l-8 -17l-5 -15l-10 -16l-12 -18l-11 -9l-16 -4zM465 292l1 1l3 1l4 9l-3 18
l-6 15l-22 39l-10 19l-13 32l-8 19l-7 18l-11 26l-12 10l-8 -16l-8 -25l-17 -38l-13 -27l-9 -25l-8 -18l-10 -20l-1 -8l-2 -9v-10l7 -7l17 -1h18l28 -2l67 -2zM289 791l-13 2l-22 15l-6 5l-14 15l-3 18l7 15l7 12l7 11l10 11l8 11l7 8l10 9l10 13l7 8l6 8l9 9l14 17l14 12
l8 6l9 3h21l20 -1l13 -5l13 -9l14 -14l14 -16l12 -14l8 -11l15 -16l12 -14l12 -17l16 -25l4 -16l-5 -13l-8 -10l-6 -6l-12 -8l-16 -11l-13 -3l-11 1l-10 3l-6 6l-7 8l-5 6l-6 7l-6 8l-5 7l-4 6l-14 15l-19 12l-9 -5l-9 -10l-27 -36l-16 -16l-19 -12l-4 -1z" />
    <glyph glyph-name="Atilde" unicode="&#xc3;" horiz-adv-x="768" 
d="M110 -12l-13 3l-18 9l-14 11l-10 12l-4 12v18l9 18l6 15l5 11l6 12l9 21l6 16l19 38l10 22l9 23l16 31l10 23l7 14l7 15l8 17l14 36l12 21l8 22l14 30l16 37l9 20l15 38l11 23l5 15l9 17l7 14l2 8l4 10l5 14l7 10l6 12l6 11l4 8l7 12l12 10l25 5h27l13 -3l11 -10l7 -13
l6 -12l10 -23l10 -22l19 -37l6 -16l7 -13l6 -18l8 -18l5 -14l7 -14l11 -25l11 -22l7 -18l7 -12l4 -11l7 -15l9 -16l6 -16l6 -17l6 -10l5 -13l10 -18l8 -20l13 -31l18 -34l10 -24l7 -15l4 -9l4 -13l12 -24l9 -19l5 -8l9 -19l7 -21l5 -17l-4 -22l-11 -13l-20 -10l-35 -9l-23 5
l-9 8l-10 10l-3 13l-9 19l-11 23l-6 11l-9 20l-11 23l-4 9l-7 12l-9 16l-7 13l-10 7l-20 2l-25 -1h-117l-33 1l-26 -2l-14 1l-17 -2l-16 -1l-13 -7l-6 -9l-20 -40l-10 -18l-3 -11l-5 -10l-6 -14l-8 -17l-5 -15l-10 -16l-12 -18l-11 -9l-16 -4zM465 292l1 1l3 1l4 9l-3 18
l-6 15l-22 39l-10 19l-13 32l-8 19l-7 18l-11 26l-12 10l-8 -16l-8 -25l-17 -38l-13 -27l-9 -25l-8 -18l-10 -20l-1 -8l-2 -9v-10l7 -7l17 -1h18l28 -2l67 -2zM425 800l-18 4l-17 8l-21 13l-15 11l-9 10l-7 5h-6l-4 -6l-6 -7l-13 -9l-11 -4h-12l-21 3l-19 6l-12 12l-6 18
l1 14l1 8l3 13l7 16l10 20l17 18l19 11l13 6l14 3h15l17 -1l17 -3l18 -6l17 -9l11 -10l10 -11l7 -10l8 -9l5 2l4 6l8 11l22 11l23 2l12 -2l12 -6l10 -9l8 -15l2 -20l-1 -19l-4 -15l-4 -9l-12 -17l-22 -18l-19 -9l-21 -7l-20 -1z" />
    <glyph glyph-name="Adieresis" unicode="&#xc4;" horiz-adv-x="768" 
d="M110 -12l-13 3l-18 9l-14 11l-10 12l-4 12v18l9 18l6 15l5 11l6 12l9 21l6 16l19 38l10 22l9 23l16 31l10 23l7 14l7 15l8 17l14 36l12 21l8 22l14 30l16 37l9 20l15 38l11 23l5 15l9 17l7 14l2 8l4 10l5 14l7 10l6 12l6 11l4 8l7 12l12 10l25 5h27l13 -3l11 -10l7 -13
l6 -12l10 -23l10 -22l19 -37l6 -16l7 -13l6 -18l8 -18l5 -14l7 -14l11 -25l11 -22l7 -18l7 -12l4 -11l7 -15l9 -16l6 -16l6 -17l6 -10l5 -13l10 -18l8 -20l13 -31l18 -34l10 -24l7 -15l4 -9l4 -13l12 -24l9 -19l5 -8l9 -19l7 -21l5 -17l-4 -22l-11 -13l-20 -10l-35 -9l-23 5
l-9 8l-10 10l-3 13l-9 19l-11 23l-6 11l-9 20l-11 23l-4 9l-7 12l-9 16l-7 13l-10 7l-20 2l-25 -1h-117l-33 1l-26 -2l-14 1l-17 -2l-16 -1l-13 -7l-6 -9l-20 -40l-10 -18l-3 -11l-5 -10l-6 -14l-8 -17l-5 -15l-10 -16l-12 -18l-11 -9l-16 -4zM465 292l1 1l3 1l4 9l-3 18
l-6 15l-22 39l-10 19l-13 32l-8 19l-7 18l-11 26l-12 10l-8 -16l-8 -25l-17 -38l-13 -27l-9 -25l-8 -18l-10 -20l-1 -8l-2 -9v-10l7 -7l17 -1h18l28 -2l67 -2zM457 810l-14 13l-9 10l-8 17l-3 16l-2 20l9 24l12 13l11 10l18 7l18 6l25 -3l22 -10l17 -21l11 -25l2 -11v-11
l-3 -16l-8 -15l-15 -15l-25 -12l-31 -4zM239 810l-14 13l-9 10l-8 17l-3 16l-1 20l7 24l13 13l11 10l17 7l19 6l24 -3l23 -10l17 -21l10 -25l2 -11v-11l-3 -16l-7 -15l-15 -15l-26 -12l-31 -4z" />
    <glyph glyph-name="Aring" unicode="&#xc5;" horiz-adv-x="768" 
d="M110 -12l-13 3l-18 9l-14 11l-10 12l-4 12v18l9 18l6 15l5 11l6 12l9 21l6 16l19 38l10 22l9 23l16 31l10 23l7 14l7 15l8 17l14 36l12 21l8 22l14 30l16 37l9 20l15 38l11 23l5 15l9 17l7 14l2 8l4 10l5 14l7 10l6 12l6 11l4 8l7 12l12 10l25 5h27l13 -3l11 -10l7 -13
l6 -12l10 -23l10 -22l19 -37l6 -16l7 -13l6 -18l8 -18l5 -14l7 -14l11 -25l11 -22l7 -18l7 -12l4 -11l7 -15l9 -16l6 -16l6 -17l6 -10l5 -13l10 -18l8 -20l13 -31l18 -34l10 -24l7 -15l4 -9l4 -13l12 -24l9 -19l5 -8l9 -19l7 -21l5 -17l-4 -22l-11 -13l-20 -10l-35 -9l-23 5
l-9 8l-10 10l-3 13l-9 19l-11 23l-6 11l-9 20l-11 23l-4 9l-7 12l-9 16l-7 13l-10 7l-20 2l-25 -1h-117l-33 1l-26 -2l-14 1l-17 -2l-16 -1l-13 -7l-6 -9l-20 -40l-10 -18l-3 -11l-5 -10l-6 -14l-8 -17l-5 -15l-10 -16l-12 -18l-11 -9l-16 -4zM465 292l1 1l3 1l4 9l-3 18
l-6 15l-22 39l-10 19l-13 32l-8 19l-7 18l-11 26l-12 10l-8 -16l-8 -25l-17 -38l-13 -27l-9 -25l-8 -18l-10 -20l-1 -8l-2 -9v-10l7 -7l17 -1h18l28 -2l67 -2zM364 767l-7 1l-9 1l-19 6l-30 19l-20 21l-12 18l-8 21l-4 21l-2 14l3 11l3 25l11 25l5 9l3 8l14 16l10 8l11 9
l16 7l19 5l15 3l19 3l15 1l19 -2l17 -8l14 -4l11 -7l19 -13l17 -19l7 -12l4 -8l3 -7l2 -9l1 -9l4 -19l-1 -19l-3 -13l-1 -12l-1 -8l-6 -14l-12 -20l-14 -15l-21 -16l-26 -13l-25 -4l-28 -2zM415 868l5 14l1 19l-4 11l-10 9l-14 7l-19 -3l-17 -12l-8 -12v-25l18 -18l27 -4z
" />
    <glyph glyph-name="AE" unicode="&#xc6;" horiz-adv-x="1041" 
d="M110 -12l-13 3l-18 9l-14 11l-10 12l-4 12v18l9 18l6 15l5 11l6 12l9 21l6 16l19 38l10 22l9 23l16 31l10 23l7 14l7 15l8 17l14 36l12 21l8 22l14 30l16 37l9 20l15 38l11 23l5 15l9 17l7 14l2 8l4 10l5 14l7 10l6 12l6 11l4 8l7 12l12 10l25 5l27 1h26l22 1l30 2h29
l42 -2h66l28 1l21 1l31 1h65l22 -3h22l16 2l28 -1l16 -1l40 2l11 -1l15 1l16 -2l15 -6l8 -12l6 -20l2 -21l-1 -13l-6 -18l-11 -14l-11 -4l-23 -2l-36 -1l-21 -1l-9 1l-32 -2h-47l-38 1l-23 1h-10l-20 -2l-53 -1h-18l-22 -1h-19l-18 -5l-3 -16l-1 -17l-2 -7v-17l-1 -23l2 -25
l-1 -26l5 -23l12 -7h8l22 -3l26 2h17l21 -2l22 2l76 1h55l15 -1l17 -5l12 -12l4 -11l2 -10l1 -8l2 -23l-3 -21l-7 -12l-20 -10h-53l-58 -3l-32 1h-11l-41 1l-12 -1l-18 1l-24 -1l-12 -2l-13 -4l-7 -6l-1 -14l-1 -15l-2 -17v-22l1 -15v-19l-1 -16v-27l9 -26l28 -12h70l28 1
l28 -1l57 1l21 2h60l12 -2h19l31 -1l25 -2h13l8 -2l9 -6l6 -9l3 -18l-1 -21v-12l-2 -11l-4 -12l-6 -8l-7 -4l-10 -3l-50 -5l-26 -3h-28l-20 1l-7 1l-9 -1l-23 2l-20 -1l-13 1l-28 -1h-21l-19 1h-16l-14 -2l-16 1l-5 -1l-22 2h-30l-33 1l-36 -1h-32l-16 1l-16 9l-12 20l-2 24
v71l-1 31v17l-3 5h-79l-33 1l-26 -2l-14 1l-17 -2l-16 -1l-13 -7l-6 -9l-20 -40l-10 -18l-3 -11l-5 -10l-6 -14l-8 -17l-5 -15l-10 -16l-12 -18l-11 -9l-16 -4zM439 294v19l-1 3l1 9l-1 12v9l-1 24l1 42l1 28v17l-1 29v65l-2 17l1 13v3l-5 1l-9 -1l-8 -11l-13 -30l-17 -36
l-12 -24l-8 -25l-17 -38l-13 -27l-9 -25l-8 -18l-10 -20l-1 -8l-2 -9v-10l7 -7l17 -1h18l28 -2l23 -1l31 -1z" />
    </font>
</defs>
</svg>
